M48
; DRILL file {KiCad 9.0.6} date 2026-01-03T23:52:16+0100
; FORMAT={-:-/ absolute / metric / decimal}
; #@! TF.CreationDate,2026-01-03T23:52:16+01:00
; #@! TF.GenerationSoftware,Kicad,Pcbnew,9.0.6
; #@! TF.FileFunction,Plated,1,2,PTH
FMAT,2
METRIC
; #@! TA.AperFunction,Plated,PTH,ComponentDrill
T1C0.200
; #@! TA.AperFunction,Plated,PTH,ViaDrill
T2C0.300
; #@! TA.AperFunction,Plated,PTH,ComponentDrill
T3C0.600
; #@! TA.AperFunction,Plated,PTH,ComponentDrill
T4C0.700
; #@! TA.AperFunction,Plated,PTH,ComponentDrill
T5C0.700
; #@! TA.AperFunction,Plated,PTH,ComponentDrill
T6C0.900
; #@! TA.AperFunction,Plated,PTH,ComponentDrill
T7C0.900
; #@! TA.AperFunction,Plated,PTH,ComponentDrill
T8C1.020
; #@! TA.AperFunction,Plated,PTH,ComponentDrill
T9C1.050
; #@! TA.AperFunction,Plated,PTH,ComponentDrill
T10C1.100
; #@! TA.AperFunction,Plated,PTH,ComponentDrill
T11C1.200
; #@! TA.AperFunction,Plated,PTH,ComponentDrill
T12C1.600
; #@! TA.AperFunction,Plated,PTH,ComponentDrill
T13C1.700
; #@! TA.AperFunction,Plated,PTH,ComponentDrill
T14C3.250
%
G90
G05
T1
X104.16Y-109.9
X104.16Y-111.3
X104.86Y-109.2
X104.86Y-110.6
X104.86Y-112.0
X105.56Y-109.9
X105.56Y-111.3
X106.26Y-109.2
X106.26Y-110.6
X106.26Y-112.0
X106.96Y-109.9
X106.96Y-111.3
T2
X99.3Y-116.3
X101.6Y-119.5
X102.9Y-119.5
X104.3Y-119.5
X105.5Y-119.5
X107.525Y-128.125
X111.419Y-108.519
X112.7Y-104.8
X113.8Y-104.1
X114.421Y-92.69
X115.38Y-93.02
X118.7Y-115.2
X121.5Y-114.0
X121.9Y-121.0
X123.0Y-90.501
X123.5Y-112.2
X123.5Y-120.7
X124.1Y-118.798
X124.584Y-120.399
X127.8Y-97.2
X129.2Y-100.1
X131.6Y-96.3
X131.7Y-94.7
X135.4Y-95.7
X138.0Y-89.8
X139.9Y-114.6
X142.3Y-91.7
X146.5Y-90.2
X147.2Y-113.5
X147.9Y-112.9
X148.825Y-115.974
X148.901Y-116.899
X155.3Y-90.3
X157.8Y-93.2
X158.5Y-104.9
X161.826Y-117.226
X163.8Y-116.1
X164.7Y-113.5
X166.9Y-120.4
X167.0Y-122.8
X167.5Y-128.15
X167.7Y-104.1
X169.15Y-109.1
X171.2Y-108.7
X173.3Y-115.93
X173.376Y-121.024
X175.2Y-102.9
X175.313Y-103.692
X178.0Y-121.0
X178.2Y-111.1
X178.2Y-124.8
X180.3Y-111.1
X180.4Y-120.1
X181.3Y-120.4
X184.0Y-105.6
X184.024Y-104.776
X185.1Y-114.4
X185.167Y-113.603
X188.9Y-113.7
X190.2Y-112.1
X190.558Y-111.384
X192.3Y-115.6
X197.5Y-128.15
X198.678Y-112.926
X198.717Y-101.881
X206.8Y-113.2
X207.119Y-116.181
X207.5Y-120.4
X209.3Y-111.0
T4
X211.517Y-115.81
X211.517Y-121.59
T5
X138.0Y-97.15
X140.0Y-97.15
T6
X135.88Y-87.68
X140.13Y-87.68
X144.68Y-87.68
X148.93Y-87.68
X153.18Y-87.68
X157.43Y-87.68
T9
X110.09Y-89.2
X112.63Y-89.2
X115.17Y-89.2
X117.71Y-89.2
X158.62Y-95.1
X161.16Y-95.1
X183.96Y-95.1
X186.5Y-95.1
X189.04Y-95.1
X191.58Y-95.1
T11
X111.5Y-128.75
X120.1Y-138.95
X141.5Y-128.75
X150.1Y-138.95
X171.5Y-128.75
X180.1Y-138.95
X201.5Y-128.75
X210.1Y-138.95
T12
X107.65Y-137.1
X115.35Y-142.2
X137.65Y-137.1
X145.35Y-142.2
X167.65Y-137.1
X175.35Y-142.2
X197.65Y-137.1
X205.35Y-142.2
T14
X206.67Y-95.18
X206.67Y-106.61
T3
G00X210.537Y-114.38
M15
G01X211.438Y-114.38
M16
G05
G00X210.538Y-123.02
M15
G01X211.437Y-123.02
M16
G05
G00X214.898Y-114.38
M15
G01X215.497Y-114.38
M16
G05
G00X214.898Y-123.02
M15
G01X215.497Y-123.02
M16
G05
T7
G00X197.78Y-96.45
M15
G01X197.78Y-96.45
M16
G05
G00X197.78Y-98.99
M15
G01X197.78Y-98.99
M16
G05
G00X197.78Y-101.53
M15
G01X197.78Y-101.53
M16
G05
G00X197.78Y-104.07
M15
G01X197.78Y-104.07
M16
G05
G00X197.78Y-106.61
M15
G01X197.78Y-106.61
M16
G05
G00X200.32Y-95.18
M15
G01X200.32Y-95.18
M16
G05
G00X200.32Y-100.26
M15
G01X200.32Y-100.26
M16
G05
G00X200.32Y-102.8
M15
G01X200.32Y-102.8
M16
G05
G00X200.32Y-105.34
M15
G01X200.32Y-105.34
M16
G05
T8
G00X210.723Y-94.27
M15
G01X210.717Y-94.27
M16
G05
G00X210.723Y-96.81
M15
G01X210.717Y-96.81
M16
G05
G00X210.723Y-104.99
M15
G01X210.717Y-104.99
M16
G05
G00X210.723Y-107.53
M15
G01X210.717Y-107.53
M16
G05
T10
G00X107.4Y-131.9
M15
G01X107.4Y-133.2
M16
G05
G00X115.6Y-132.7
M15
G01X115.6Y-134.0
M16
G05
G00X137.4Y-131.9
M15
G01X137.4Y-133.2
M16
G05
G00X145.6Y-132.7
M15
G01X145.6Y-134.0
M16
G05
G00X167.4Y-131.9
M15
G01X167.4Y-133.2
M16
G05
G00X175.6Y-132.7
M15
G01X175.6Y-134.0
M16
G05
G00X197.4Y-131.9
M15
G01X197.4Y-133.2
M16
G05
G00X205.6Y-132.7
M15
G01X205.6Y-134.0
M16
G05
T13
G00X203.662Y-93.16
M15
G01X203.578Y-93.16
M16
G05
G00X203.662Y-108.64
M15
G01X203.578Y-108.64
M16
G05
M30
