%TF.GenerationSoftware,KiCad,Pcbnew,9.0.6*%
%TF.CreationDate,2026-01-03T23:52:13+01:00*%
%TF.ProjectId,Artnet-Node,4172746e-6574-42d4-9e6f-64652e6b6963,rev?*%
%TF.SameCoordinates,Original*%
%TF.FileFunction,Legend,Bot*%
%TF.FilePolarity,Positive*%
%FSLAX46Y46*%
G04 Gerber Fmt 4.6, Leading zero omitted, Abs format (unit mm)*
G04 Created by KiCad (PCBNEW 9.0.6) date 2026-01-03 23:52:13*
%MOMM*%
%LPD*%
G01*
G04 APERTURE LIST*
%ADD10C,0.150000*%
%ADD11C,0.300000*%
%ADD12C,0.250000*%
G04 APERTURE END LIST*
D10*
X134904819Y-97438095D02*
X135714342Y-97438095D01*
X135714342Y-97438095D02*
X135809580Y-97485714D01*
X135809580Y-97485714D02*
X135857200Y-97533333D01*
X135857200Y-97533333D02*
X135904819Y-97628571D01*
X135904819Y-97628571D02*
X135904819Y-97819047D01*
X135904819Y-97819047D02*
X135857200Y-97914285D01*
X135857200Y-97914285D02*
X135809580Y-97961904D01*
X135809580Y-97961904D02*
X135714342Y-98009523D01*
X135714342Y-98009523D02*
X134904819Y-98009523D01*
X134904819Y-98961904D02*
X134904819Y-98485714D01*
X134904819Y-98485714D02*
X135381009Y-98438095D01*
X135381009Y-98438095D02*
X135333390Y-98485714D01*
X135333390Y-98485714D02*
X135285771Y-98580952D01*
X135285771Y-98580952D02*
X135285771Y-98819047D01*
X135285771Y-98819047D02*
X135333390Y-98914285D01*
X135333390Y-98914285D02*
X135381009Y-98961904D01*
X135381009Y-98961904D02*
X135476247Y-99009523D01*
X135476247Y-99009523D02*
X135714342Y-99009523D01*
X135714342Y-99009523D02*
X135809580Y-98961904D01*
X135809580Y-98961904D02*
X135857200Y-98914285D01*
X135857200Y-98914285D02*
X135904819Y-98819047D01*
X135904819Y-98819047D02*
X135904819Y-98580952D01*
X135904819Y-98580952D02*
X135857200Y-98485714D01*
X135857200Y-98485714D02*
X135809580Y-98438095D01*
X210659580Y-115257142D02*
X210707200Y-115209523D01*
X210707200Y-115209523D02*
X210754819Y-115066666D01*
X210754819Y-115066666D02*
X210754819Y-114971428D01*
X210754819Y-114971428D02*
X210707200Y-114828571D01*
X210707200Y-114828571D02*
X210611961Y-114733333D01*
X210611961Y-114733333D02*
X210516723Y-114685714D01*
X210516723Y-114685714D02*
X210326247Y-114638095D01*
X210326247Y-114638095D02*
X210183390Y-114638095D01*
X210183390Y-114638095D02*
X209992914Y-114685714D01*
X209992914Y-114685714D02*
X209897676Y-114733333D01*
X209897676Y-114733333D02*
X209802438Y-114828571D01*
X209802438Y-114828571D02*
X209754819Y-114971428D01*
X209754819Y-114971428D02*
X209754819Y-115066666D01*
X209754819Y-115066666D02*
X209802438Y-115209523D01*
X209802438Y-115209523D02*
X209850057Y-115257142D01*
X209850057Y-115638095D02*
X209802438Y-115685714D01*
X209802438Y-115685714D02*
X209754819Y-115780952D01*
X209754819Y-115780952D02*
X209754819Y-116019047D01*
X209754819Y-116019047D02*
X209802438Y-116114285D01*
X209802438Y-116114285D02*
X209850057Y-116161904D01*
X209850057Y-116161904D02*
X209945295Y-116209523D01*
X209945295Y-116209523D02*
X210040533Y-116209523D01*
X210040533Y-116209523D02*
X210183390Y-116161904D01*
X210183390Y-116161904D02*
X210754819Y-115590476D01*
X210754819Y-115590476D02*
X210754819Y-116209523D01*
X209754819Y-117066666D02*
X209754819Y-116876190D01*
X209754819Y-116876190D02*
X209802438Y-116780952D01*
X209802438Y-116780952D02*
X209850057Y-116733333D01*
X209850057Y-116733333D02*
X209992914Y-116638095D01*
X209992914Y-116638095D02*
X210183390Y-116590476D01*
X210183390Y-116590476D02*
X210564342Y-116590476D01*
X210564342Y-116590476D02*
X210659580Y-116638095D01*
X210659580Y-116638095D02*
X210707200Y-116685714D01*
X210707200Y-116685714D02*
X210754819Y-116780952D01*
X210754819Y-116780952D02*
X210754819Y-116971428D01*
X210754819Y-116971428D02*
X210707200Y-117066666D01*
X210707200Y-117066666D02*
X210659580Y-117114285D01*
X210659580Y-117114285D02*
X210564342Y-117161904D01*
X210564342Y-117161904D02*
X210326247Y-117161904D01*
X210326247Y-117161904D02*
X210231009Y-117114285D01*
X210231009Y-117114285D02*
X210183390Y-117066666D01*
X210183390Y-117066666D02*
X210135771Y-116971428D01*
X210135771Y-116971428D02*
X210135771Y-116780952D01*
X210135771Y-116780952D02*
X210183390Y-116685714D01*
X210183390Y-116685714D02*
X210231009Y-116638095D01*
X210231009Y-116638095D02*
X210326247Y-116590476D01*
X168704819Y-122461905D02*
X167704819Y-122461905D01*
X167704819Y-122461905D02*
X167704819Y-122700000D01*
X167704819Y-122700000D02*
X167752438Y-122842857D01*
X167752438Y-122842857D02*
X167847676Y-122938095D01*
X167847676Y-122938095D02*
X167942914Y-122985714D01*
X167942914Y-122985714D02*
X168133390Y-123033333D01*
X168133390Y-123033333D02*
X168276247Y-123033333D01*
X168276247Y-123033333D02*
X168466723Y-122985714D01*
X168466723Y-122985714D02*
X168561961Y-122938095D01*
X168561961Y-122938095D02*
X168657200Y-122842857D01*
X168657200Y-122842857D02*
X168704819Y-122700000D01*
X168704819Y-122700000D02*
X168704819Y-122461905D01*
X167704819Y-123366667D02*
X167704819Y-124033333D01*
X167704819Y-124033333D02*
X168704819Y-123604762D01*
X181159580Y-115957142D02*
X181207200Y-115909523D01*
X181207200Y-115909523D02*
X181254819Y-115766666D01*
X181254819Y-115766666D02*
X181254819Y-115671428D01*
X181254819Y-115671428D02*
X181207200Y-115528571D01*
X181207200Y-115528571D02*
X181111961Y-115433333D01*
X181111961Y-115433333D02*
X181016723Y-115385714D01*
X181016723Y-115385714D02*
X180826247Y-115338095D01*
X180826247Y-115338095D02*
X180683390Y-115338095D01*
X180683390Y-115338095D02*
X180492914Y-115385714D01*
X180492914Y-115385714D02*
X180397676Y-115433333D01*
X180397676Y-115433333D02*
X180302438Y-115528571D01*
X180302438Y-115528571D02*
X180254819Y-115671428D01*
X180254819Y-115671428D02*
X180254819Y-115766666D01*
X180254819Y-115766666D02*
X180302438Y-115909523D01*
X180302438Y-115909523D02*
X180350057Y-115957142D01*
X180350057Y-116338095D02*
X180302438Y-116385714D01*
X180302438Y-116385714D02*
X180254819Y-116480952D01*
X180254819Y-116480952D02*
X180254819Y-116719047D01*
X180254819Y-116719047D02*
X180302438Y-116814285D01*
X180302438Y-116814285D02*
X180350057Y-116861904D01*
X180350057Y-116861904D02*
X180445295Y-116909523D01*
X180445295Y-116909523D02*
X180540533Y-116909523D01*
X180540533Y-116909523D02*
X180683390Y-116861904D01*
X180683390Y-116861904D02*
X181254819Y-116290476D01*
X181254819Y-116290476D02*
X181254819Y-116909523D01*
X180254819Y-117814285D02*
X180254819Y-117338095D01*
X180254819Y-117338095D02*
X180731009Y-117290476D01*
X180731009Y-117290476D02*
X180683390Y-117338095D01*
X180683390Y-117338095D02*
X180635771Y-117433333D01*
X180635771Y-117433333D02*
X180635771Y-117671428D01*
X180635771Y-117671428D02*
X180683390Y-117766666D01*
X180683390Y-117766666D02*
X180731009Y-117814285D01*
X180731009Y-117814285D02*
X180826247Y-117861904D01*
X180826247Y-117861904D02*
X181064342Y-117861904D01*
X181064342Y-117861904D02*
X181159580Y-117814285D01*
X181159580Y-117814285D02*
X181207200Y-117766666D01*
X181207200Y-117766666D02*
X181254819Y-117671428D01*
X181254819Y-117671428D02*
X181254819Y-117433333D01*
X181254819Y-117433333D02*
X181207200Y-117338095D01*
X181207200Y-117338095D02*
X181159580Y-117290476D01*
X121659580Y-115357142D02*
X121707200Y-115309523D01*
X121707200Y-115309523D02*
X121754819Y-115166666D01*
X121754819Y-115166666D02*
X121754819Y-115071428D01*
X121754819Y-115071428D02*
X121707200Y-114928571D01*
X121707200Y-114928571D02*
X121611961Y-114833333D01*
X121611961Y-114833333D02*
X121516723Y-114785714D01*
X121516723Y-114785714D02*
X121326247Y-114738095D01*
X121326247Y-114738095D02*
X121183390Y-114738095D01*
X121183390Y-114738095D02*
X120992914Y-114785714D01*
X120992914Y-114785714D02*
X120897676Y-114833333D01*
X120897676Y-114833333D02*
X120802438Y-114928571D01*
X120802438Y-114928571D02*
X120754819Y-115071428D01*
X120754819Y-115071428D02*
X120754819Y-115166666D01*
X120754819Y-115166666D02*
X120802438Y-115309523D01*
X120802438Y-115309523D02*
X120850057Y-115357142D01*
X120850057Y-115738095D02*
X120802438Y-115785714D01*
X120802438Y-115785714D02*
X120754819Y-115880952D01*
X120754819Y-115880952D02*
X120754819Y-116119047D01*
X120754819Y-116119047D02*
X120802438Y-116214285D01*
X120802438Y-116214285D02*
X120850057Y-116261904D01*
X120850057Y-116261904D02*
X120945295Y-116309523D01*
X120945295Y-116309523D02*
X121040533Y-116309523D01*
X121040533Y-116309523D02*
X121183390Y-116261904D01*
X121183390Y-116261904D02*
X121754819Y-115690476D01*
X121754819Y-115690476D02*
X121754819Y-116309523D01*
X120754819Y-116642857D02*
X120754819Y-117309523D01*
X120754819Y-117309523D02*
X121754819Y-116880952D01*
X137642857Y-89354819D02*
X137976190Y-88878628D01*
X138214285Y-89354819D02*
X138214285Y-88354819D01*
X138214285Y-88354819D02*
X137833333Y-88354819D01*
X137833333Y-88354819D02*
X137738095Y-88402438D01*
X137738095Y-88402438D02*
X137690476Y-88450057D01*
X137690476Y-88450057D02*
X137642857Y-88545295D01*
X137642857Y-88545295D02*
X137642857Y-88688152D01*
X137642857Y-88688152D02*
X137690476Y-88783390D01*
X137690476Y-88783390D02*
X137738095Y-88831009D01*
X137738095Y-88831009D02*
X137833333Y-88878628D01*
X137833333Y-88878628D02*
X138214285Y-88878628D01*
X137261904Y-88450057D02*
X137214285Y-88402438D01*
X137214285Y-88402438D02*
X137119047Y-88354819D01*
X137119047Y-88354819D02*
X136880952Y-88354819D01*
X136880952Y-88354819D02*
X136785714Y-88402438D01*
X136785714Y-88402438D02*
X136738095Y-88450057D01*
X136738095Y-88450057D02*
X136690476Y-88545295D01*
X136690476Y-88545295D02*
X136690476Y-88640533D01*
X136690476Y-88640533D02*
X136738095Y-88783390D01*
X136738095Y-88783390D02*
X137309523Y-89354819D01*
X137309523Y-89354819D02*
X136690476Y-89354819D01*
X135833333Y-88354819D02*
X136023809Y-88354819D01*
X136023809Y-88354819D02*
X136119047Y-88402438D01*
X136119047Y-88402438D02*
X136166666Y-88450057D01*
X136166666Y-88450057D02*
X136261904Y-88592914D01*
X136261904Y-88592914D02*
X136309523Y-88783390D01*
X136309523Y-88783390D02*
X136309523Y-89164342D01*
X136309523Y-89164342D02*
X136261904Y-89259580D01*
X136261904Y-89259580D02*
X136214285Y-89307200D01*
X136214285Y-89307200D02*
X136119047Y-89354819D01*
X136119047Y-89354819D02*
X135928571Y-89354819D01*
X135928571Y-89354819D02*
X135833333Y-89307200D01*
X135833333Y-89307200D02*
X135785714Y-89259580D01*
X135785714Y-89259580D02*
X135738095Y-89164342D01*
X135738095Y-89164342D02*
X135738095Y-88926247D01*
X135738095Y-88926247D02*
X135785714Y-88831009D01*
X135785714Y-88831009D02*
X135833333Y-88783390D01*
X135833333Y-88783390D02*
X135928571Y-88735771D01*
X135928571Y-88735771D02*
X136119047Y-88735771D01*
X136119047Y-88735771D02*
X136214285Y-88783390D01*
X136214285Y-88783390D02*
X136261904Y-88831009D01*
X136261904Y-88831009D02*
X136309523Y-88926247D01*
X139304819Y-122361905D02*
X138304819Y-122361905D01*
X138304819Y-122361905D02*
X138304819Y-122600000D01*
X138304819Y-122600000D02*
X138352438Y-122742857D01*
X138352438Y-122742857D02*
X138447676Y-122838095D01*
X138447676Y-122838095D02*
X138542914Y-122885714D01*
X138542914Y-122885714D02*
X138733390Y-122933333D01*
X138733390Y-122933333D02*
X138876247Y-122933333D01*
X138876247Y-122933333D02*
X139066723Y-122885714D01*
X139066723Y-122885714D02*
X139161961Y-122838095D01*
X139161961Y-122838095D02*
X139257200Y-122742857D01*
X139257200Y-122742857D02*
X139304819Y-122600000D01*
X139304819Y-122600000D02*
X139304819Y-122361905D01*
X138304819Y-123838095D02*
X138304819Y-123361905D01*
X138304819Y-123361905D02*
X138781009Y-123314286D01*
X138781009Y-123314286D02*
X138733390Y-123361905D01*
X138733390Y-123361905D02*
X138685771Y-123457143D01*
X138685771Y-123457143D02*
X138685771Y-123695238D01*
X138685771Y-123695238D02*
X138733390Y-123790476D01*
X138733390Y-123790476D02*
X138781009Y-123838095D01*
X138781009Y-123838095D02*
X138876247Y-123885714D01*
X138876247Y-123885714D02*
X139114342Y-123885714D01*
X139114342Y-123885714D02*
X139209580Y-123838095D01*
X139209580Y-123838095D02*
X139257200Y-123790476D01*
X139257200Y-123790476D02*
X139304819Y-123695238D01*
X139304819Y-123695238D02*
X139304819Y-123457143D01*
X139304819Y-123457143D02*
X139257200Y-123361905D01*
X139257200Y-123361905D02*
X139209580Y-123314286D01*
X113934404Y-122124819D02*
X113934404Y-122934342D01*
X113934404Y-122934342D02*
X113886785Y-123029580D01*
X113886785Y-123029580D02*
X113839166Y-123077200D01*
X113839166Y-123077200D02*
X113743928Y-123124819D01*
X113743928Y-123124819D02*
X113553452Y-123124819D01*
X113553452Y-123124819D02*
X113458214Y-123077200D01*
X113458214Y-123077200D02*
X113410595Y-123029580D01*
X113410595Y-123029580D02*
X113362976Y-122934342D01*
X113362976Y-122934342D02*
X113362976Y-122124819D01*
X112743928Y-122553390D02*
X112839166Y-122505771D01*
X112839166Y-122505771D02*
X112886785Y-122458152D01*
X112886785Y-122458152D02*
X112934404Y-122362914D01*
X112934404Y-122362914D02*
X112934404Y-122315295D01*
X112934404Y-122315295D02*
X112886785Y-122220057D01*
X112886785Y-122220057D02*
X112839166Y-122172438D01*
X112839166Y-122172438D02*
X112743928Y-122124819D01*
X112743928Y-122124819D02*
X112553452Y-122124819D01*
X112553452Y-122124819D02*
X112458214Y-122172438D01*
X112458214Y-122172438D02*
X112410595Y-122220057D01*
X112410595Y-122220057D02*
X112362976Y-122315295D01*
X112362976Y-122315295D02*
X112362976Y-122362914D01*
X112362976Y-122362914D02*
X112410595Y-122458152D01*
X112410595Y-122458152D02*
X112458214Y-122505771D01*
X112458214Y-122505771D02*
X112553452Y-122553390D01*
X112553452Y-122553390D02*
X112743928Y-122553390D01*
X112743928Y-122553390D02*
X112839166Y-122601009D01*
X112839166Y-122601009D02*
X112886785Y-122648628D01*
X112886785Y-122648628D02*
X112934404Y-122743866D01*
X112934404Y-122743866D02*
X112934404Y-122934342D01*
X112934404Y-122934342D02*
X112886785Y-123029580D01*
X112886785Y-123029580D02*
X112839166Y-123077200D01*
X112839166Y-123077200D02*
X112743928Y-123124819D01*
X112743928Y-123124819D02*
X112553452Y-123124819D01*
X112553452Y-123124819D02*
X112458214Y-123077200D01*
X112458214Y-123077200D02*
X112410595Y-123029580D01*
X112410595Y-123029580D02*
X112362976Y-122934342D01*
X112362976Y-122934342D02*
X112362976Y-122743866D01*
X112362976Y-122743866D02*
X112410595Y-122648628D01*
X112410595Y-122648628D02*
X112458214Y-122601009D01*
X112458214Y-122601009D02*
X112553452Y-122553390D01*
X108804819Y-122461905D02*
X107804819Y-122461905D01*
X107804819Y-122461905D02*
X107804819Y-122700000D01*
X107804819Y-122700000D02*
X107852438Y-122842857D01*
X107852438Y-122842857D02*
X107947676Y-122938095D01*
X107947676Y-122938095D02*
X108042914Y-122985714D01*
X108042914Y-122985714D02*
X108233390Y-123033333D01*
X108233390Y-123033333D02*
X108376247Y-123033333D01*
X108376247Y-123033333D02*
X108566723Y-122985714D01*
X108566723Y-122985714D02*
X108661961Y-122938095D01*
X108661961Y-122938095D02*
X108757200Y-122842857D01*
X108757200Y-122842857D02*
X108804819Y-122700000D01*
X108804819Y-122700000D02*
X108804819Y-122461905D01*
X108138152Y-123890476D02*
X108804819Y-123890476D01*
X107757200Y-123652381D02*
X108471485Y-123414286D01*
X108471485Y-123414286D02*
X108471485Y-124033333D01*
X174138094Y-122624819D02*
X174138094Y-123434342D01*
X174138094Y-123434342D02*
X174090475Y-123529580D01*
X174090475Y-123529580D02*
X174042856Y-123577200D01*
X174042856Y-123577200D02*
X173947618Y-123624819D01*
X173947618Y-123624819D02*
X173757142Y-123624819D01*
X173757142Y-123624819D02*
X173661904Y-123577200D01*
X173661904Y-123577200D02*
X173614285Y-123529580D01*
X173614285Y-123529580D02*
X173566666Y-123434342D01*
X173566666Y-123434342D02*
X173566666Y-122624819D01*
X172566666Y-123624819D02*
X173138094Y-123624819D01*
X172852380Y-123624819D02*
X172852380Y-122624819D01*
X172852380Y-122624819D02*
X172947618Y-122767676D01*
X172947618Y-122767676D02*
X173042856Y-122862914D01*
X173042856Y-122862914D02*
X173138094Y-122910533D01*
X172185713Y-122720057D02*
X172138094Y-122672438D01*
X172138094Y-122672438D02*
X172042856Y-122624819D01*
X172042856Y-122624819D02*
X171804761Y-122624819D01*
X171804761Y-122624819D02*
X171709523Y-122672438D01*
X171709523Y-122672438D02*
X171661904Y-122720057D01*
X171661904Y-122720057D02*
X171614285Y-122815295D01*
X171614285Y-122815295D02*
X171614285Y-122910533D01*
X171614285Y-122910533D02*
X171661904Y-123053390D01*
X171661904Y-123053390D02*
X172233332Y-123624819D01*
X172233332Y-123624819D02*
X171614285Y-123624819D01*
X129861904Y-98134819D02*
X129861904Y-98944342D01*
X129861904Y-98944342D02*
X129814285Y-99039580D01*
X129814285Y-99039580D02*
X129766666Y-99087200D01*
X129766666Y-99087200D02*
X129671428Y-99134819D01*
X129671428Y-99134819D02*
X129480952Y-99134819D01*
X129480952Y-99134819D02*
X129385714Y-99087200D01*
X129385714Y-99087200D02*
X129338095Y-99039580D01*
X129338095Y-99039580D02*
X129290476Y-98944342D01*
X129290476Y-98944342D02*
X129290476Y-98134819D01*
X128766666Y-99134819D02*
X128576190Y-99134819D01*
X128576190Y-99134819D02*
X128480952Y-99087200D01*
X128480952Y-99087200D02*
X128433333Y-99039580D01*
X128433333Y-99039580D02*
X128338095Y-98896723D01*
X128338095Y-98896723D02*
X128290476Y-98706247D01*
X128290476Y-98706247D02*
X128290476Y-98325295D01*
X128290476Y-98325295D02*
X128338095Y-98230057D01*
X128338095Y-98230057D02*
X128385714Y-98182438D01*
X128385714Y-98182438D02*
X128480952Y-98134819D01*
X128480952Y-98134819D02*
X128671428Y-98134819D01*
X128671428Y-98134819D02*
X128766666Y-98182438D01*
X128766666Y-98182438D02*
X128814285Y-98230057D01*
X128814285Y-98230057D02*
X128861904Y-98325295D01*
X128861904Y-98325295D02*
X128861904Y-98563390D01*
X128861904Y-98563390D02*
X128814285Y-98658628D01*
X128814285Y-98658628D02*
X128766666Y-98706247D01*
X128766666Y-98706247D02*
X128671428Y-98753866D01*
X128671428Y-98753866D02*
X128480952Y-98753866D01*
X128480952Y-98753866D02*
X128385714Y-98706247D01*
X128385714Y-98706247D02*
X128338095Y-98658628D01*
X128338095Y-98658628D02*
X128290476Y-98563390D01*
X198704819Y-122461905D02*
X197704819Y-122461905D01*
X197704819Y-122461905D02*
X197704819Y-122700000D01*
X197704819Y-122700000D02*
X197752438Y-122842857D01*
X197752438Y-122842857D02*
X197847676Y-122938095D01*
X197847676Y-122938095D02*
X197942914Y-122985714D01*
X197942914Y-122985714D02*
X198133390Y-123033333D01*
X198133390Y-123033333D02*
X198276247Y-123033333D01*
X198276247Y-123033333D02*
X198466723Y-122985714D01*
X198466723Y-122985714D02*
X198561961Y-122938095D01*
X198561961Y-122938095D02*
X198657200Y-122842857D01*
X198657200Y-122842857D02*
X198704819Y-122700000D01*
X198704819Y-122700000D02*
X198704819Y-122461905D01*
X197704819Y-123890476D02*
X197704819Y-123700000D01*
X197704819Y-123700000D02*
X197752438Y-123604762D01*
X197752438Y-123604762D02*
X197800057Y-123557143D01*
X197800057Y-123557143D02*
X197942914Y-123461905D01*
X197942914Y-123461905D02*
X198133390Y-123414286D01*
X198133390Y-123414286D02*
X198514342Y-123414286D01*
X198514342Y-123414286D02*
X198609580Y-123461905D01*
X198609580Y-123461905D02*
X198657200Y-123509524D01*
X198657200Y-123509524D02*
X198704819Y-123604762D01*
X198704819Y-123604762D02*
X198704819Y-123795238D01*
X198704819Y-123795238D02*
X198657200Y-123890476D01*
X198657200Y-123890476D02*
X198609580Y-123938095D01*
X198609580Y-123938095D02*
X198514342Y-123985714D01*
X198514342Y-123985714D02*
X198276247Y-123985714D01*
X198276247Y-123985714D02*
X198181009Y-123938095D01*
X198181009Y-123938095D02*
X198133390Y-123890476D01*
X198133390Y-123890476D02*
X198085771Y-123795238D01*
X198085771Y-123795238D02*
X198085771Y-123604762D01*
X198085771Y-123604762D02*
X198133390Y-123509524D01*
X198133390Y-123509524D02*
X198181009Y-123461905D01*
X198181009Y-123461905D02*
X198276247Y-123414286D01*
X203538094Y-121924819D02*
X203538094Y-122734342D01*
X203538094Y-122734342D02*
X203490475Y-122829580D01*
X203490475Y-122829580D02*
X203442856Y-122877200D01*
X203442856Y-122877200D02*
X203347618Y-122924819D01*
X203347618Y-122924819D02*
X203157142Y-122924819D01*
X203157142Y-122924819D02*
X203061904Y-122877200D01*
X203061904Y-122877200D02*
X203014285Y-122829580D01*
X203014285Y-122829580D02*
X202966666Y-122734342D01*
X202966666Y-122734342D02*
X202966666Y-121924819D01*
X201966666Y-122924819D02*
X202538094Y-122924819D01*
X202252380Y-122924819D02*
X202252380Y-121924819D01*
X202252380Y-121924819D02*
X202347618Y-122067676D01*
X202347618Y-122067676D02*
X202442856Y-122162914D01*
X202442856Y-122162914D02*
X202538094Y-122210533D01*
X201014285Y-122924819D02*
X201585713Y-122924819D01*
X201299999Y-122924819D02*
X201299999Y-121924819D01*
X201299999Y-121924819D02*
X201395237Y-122067676D01*
X201395237Y-122067676D02*
X201490475Y-122162914D01*
X201490475Y-122162914D02*
X201585713Y-122210533D01*
X151859580Y-115557142D02*
X151907200Y-115509523D01*
X151907200Y-115509523D02*
X151954819Y-115366666D01*
X151954819Y-115366666D02*
X151954819Y-115271428D01*
X151954819Y-115271428D02*
X151907200Y-115128571D01*
X151907200Y-115128571D02*
X151811961Y-115033333D01*
X151811961Y-115033333D02*
X151716723Y-114985714D01*
X151716723Y-114985714D02*
X151526247Y-114938095D01*
X151526247Y-114938095D02*
X151383390Y-114938095D01*
X151383390Y-114938095D02*
X151192914Y-114985714D01*
X151192914Y-114985714D02*
X151097676Y-115033333D01*
X151097676Y-115033333D02*
X151002438Y-115128571D01*
X151002438Y-115128571D02*
X150954819Y-115271428D01*
X150954819Y-115271428D02*
X150954819Y-115366666D01*
X150954819Y-115366666D02*
X151002438Y-115509523D01*
X151002438Y-115509523D02*
X151050057Y-115557142D01*
X151050057Y-115938095D02*
X151002438Y-115985714D01*
X151002438Y-115985714D02*
X150954819Y-116080952D01*
X150954819Y-116080952D02*
X150954819Y-116319047D01*
X150954819Y-116319047D02*
X151002438Y-116414285D01*
X151002438Y-116414285D02*
X151050057Y-116461904D01*
X151050057Y-116461904D02*
X151145295Y-116509523D01*
X151145295Y-116509523D02*
X151240533Y-116509523D01*
X151240533Y-116509523D02*
X151383390Y-116461904D01*
X151383390Y-116461904D02*
X151954819Y-115890476D01*
X151954819Y-115890476D02*
X151954819Y-116509523D01*
X151288152Y-117366666D02*
X151954819Y-117366666D01*
X150907200Y-117128571D02*
X151621485Y-116890476D01*
X151621485Y-116890476D02*
X151621485Y-117509523D01*
X144538094Y-122224819D02*
X144538094Y-123034342D01*
X144538094Y-123034342D02*
X144490475Y-123129580D01*
X144490475Y-123129580D02*
X144442856Y-123177200D01*
X144442856Y-123177200D02*
X144347618Y-123224819D01*
X144347618Y-123224819D02*
X144157142Y-123224819D01*
X144157142Y-123224819D02*
X144061904Y-123177200D01*
X144061904Y-123177200D02*
X144014285Y-123129580D01*
X144014285Y-123129580D02*
X143966666Y-123034342D01*
X143966666Y-123034342D02*
X143966666Y-122224819D01*
X142966666Y-123224819D02*
X143538094Y-123224819D01*
X143252380Y-123224819D02*
X143252380Y-122224819D01*
X143252380Y-122224819D02*
X143347618Y-122367676D01*
X143347618Y-122367676D02*
X143442856Y-122462914D01*
X143442856Y-122462914D02*
X143538094Y-122510533D01*
X142347618Y-122224819D02*
X142252380Y-122224819D01*
X142252380Y-122224819D02*
X142157142Y-122272438D01*
X142157142Y-122272438D02*
X142109523Y-122320057D01*
X142109523Y-122320057D02*
X142061904Y-122415295D01*
X142061904Y-122415295D02*
X142014285Y-122605771D01*
X142014285Y-122605771D02*
X142014285Y-122843866D01*
X142014285Y-122843866D02*
X142061904Y-123034342D01*
X142061904Y-123034342D02*
X142109523Y-123129580D01*
X142109523Y-123129580D02*
X142157142Y-123177200D01*
X142157142Y-123177200D02*
X142252380Y-123224819D01*
X142252380Y-123224819D02*
X142347618Y-123224819D01*
X142347618Y-123224819D02*
X142442856Y-123177200D01*
X142442856Y-123177200D02*
X142490475Y-123129580D01*
X142490475Y-123129580D02*
X142538094Y-123034342D01*
X142538094Y-123034342D02*
X142585713Y-122843866D01*
X142585713Y-122843866D02*
X142585713Y-122605771D01*
X142585713Y-122605771D02*
X142538094Y-122415295D01*
X142538094Y-122415295D02*
X142490475Y-122320057D01*
X142490475Y-122320057D02*
X142442856Y-122272438D01*
X142442856Y-122272438D02*
X142347618Y-122224819D01*
%TO.C,U5*%
X129410000Y-96660000D02*
X131190000Y-96660000D01*
X129410000Y-99740000D02*
X131190000Y-99740000D01*
D11*
X129150000Y-99870000D02*
G75*
G02*
X128850000Y-99870000I-150000J0D01*
G01*
X128850000Y-99870000D02*
G75*
G02*
X129150000Y-99870000I150000J0D01*
G01*
D12*
%TO.C,C26*%
X205590000Y-115620000D02*
X205590000Y-114820000D01*
X205590000Y-116180000D02*
X205590000Y-116980000D01*
X205900000Y-117290000D02*
X206700000Y-117290000D01*
X206700000Y-114510000D02*
X205900000Y-114510000D01*
X207010000Y-115620000D02*
X207010000Y-114820000D01*
X207010000Y-116180000D02*
X207010000Y-116980000D01*
X205590000Y-114820000D02*
G75*
G02*
X205900000Y-114510000I310000J0D01*
G01*
X205900000Y-117290000D02*
G75*
G02*
X205590000Y-116980000I0J310000D01*
G01*
X206700000Y-114510000D02*
G75*
G02*
X207010000Y-114820000I0J-310000D01*
G01*
X207010000Y-116980000D02*
G75*
G02*
X206700000Y-117290000I-310000J0D01*
G01*
%TO.C,D7*%
X171700000Y-122500000D02*
X171700000Y-123500000D01*
X172560000Y-122500000D02*
X171700000Y-122500000D01*
X173510000Y-123900000D02*
X172880000Y-123900000D01*
X174700000Y-122500000D02*
X173830000Y-122500000D01*
X174700000Y-122500000D02*
X174700000Y-123500000D01*
%TO.C,C25*%
X176090000Y-116320000D02*
X176090000Y-115520000D01*
X176090000Y-116880000D02*
X176090000Y-117680000D01*
X176400000Y-117990000D02*
X177200000Y-117990000D01*
X177200000Y-115210000D02*
X176400000Y-115210000D01*
X177510000Y-116320000D02*
X177510000Y-115520000D01*
X177510000Y-116880000D02*
X177510000Y-117680000D01*
X176090000Y-115520000D02*
G75*
G02*
X176400000Y-115210000I310000J0D01*
G01*
X176400000Y-117990000D02*
G75*
G02*
X176090000Y-117680000I0J310000D01*
G01*
X177200000Y-115210000D02*
G75*
G02*
X177510000Y-115520000I0J-310000D01*
G01*
X177510000Y-117680000D02*
G75*
G02*
X177200000Y-117990000I-310000J0D01*
G01*
%TO.C,C27*%
X116590000Y-115720000D02*
X116590000Y-114920000D01*
X116590000Y-116280000D02*
X116590000Y-117080000D01*
X116900000Y-117390000D02*
X117700000Y-117390000D01*
X117700000Y-114610000D02*
X116900000Y-114610000D01*
X118010000Y-115720000D02*
X118010000Y-114920000D01*
X118010000Y-116280000D02*
X118010000Y-117080000D01*
X116590000Y-114920000D02*
G75*
G02*
X116900000Y-114610000I310000J0D01*
G01*
X116900000Y-117390000D02*
G75*
G02*
X116590000Y-117080000I0J310000D01*
G01*
X117700000Y-114610000D02*
G75*
G02*
X118010000Y-114920000I0J-310000D01*
G01*
X118010000Y-117080000D02*
G75*
G02*
X117700000Y-117390000I-310000J0D01*
G01*
D10*
%TO.C,R26*%
X132770000Y-90890000D02*
X134210000Y-90890000D01*
X132770000Y-94800000D02*
X132770000Y-90890000D01*
X134210000Y-94800000D02*
X132770000Y-94800000D01*
X139790000Y-94800000D02*
X141230000Y-94800000D01*
X141230000Y-90890000D02*
X139790000Y-90890000D01*
X141230000Y-94800000D02*
X141230000Y-90890000D01*
%TO.C,R23*%
X132410000Y-97540000D02*
X132410000Y-98860000D01*
X132410000Y-98860000D02*
X133370000Y-98860000D01*
X133370000Y-97540000D02*
X132410000Y-97540000D01*
X134230000Y-97540000D02*
X135190000Y-97540000D01*
X135190000Y-97540000D02*
X135190000Y-98860000D01*
X135190000Y-98860000D02*
X134230000Y-98860000D01*
D12*
%TO.C,D5*%
X142300000Y-122400000D02*
X142300000Y-123400000D01*
X143160000Y-122400000D02*
X142300000Y-122400000D01*
X144110000Y-123800000D02*
X143480000Y-123800000D01*
X145300000Y-122400000D02*
X144430000Y-122400000D01*
X145300000Y-122400000D02*
X145300000Y-123400000D01*
D10*
%TO.C,U8*%
X110642500Y-114580000D02*
X110642500Y-117620000D01*
X110642500Y-117620000D02*
X115702500Y-117620000D01*
X115702500Y-114580000D02*
X110642500Y-114580000D01*
X115702500Y-117620000D02*
X115702500Y-114580000D01*
D11*
X110672500Y-113330000D02*
G75*
G02*
X110372500Y-113330000I-150000J0D01*
G01*
X110372500Y-113330000D02*
G75*
G02*
X110672500Y-113330000I150000J0D01*
G01*
X111412500Y-115330000D02*
G75*
G02*
X111112500Y-115330000I-150000J0D01*
G01*
X111112500Y-115330000D02*
G75*
G02*
X111412500Y-115330000I150000J0D01*
G01*
D12*
%TO.C,D4*%
X111800000Y-122500000D02*
X111800000Y-123500000D01*
X112660000Y-122500000D02*
X111800000Y-122500000D01*
X113610000Y-123900000D02*
X112980000Y-123900000D01*
X114800000Y-122500000D02*
X113930000Y-122500000D01*
X114800000Y-122500000D02*
X114800000Y-123500000D01*
D10*
%TO.C,R22*%
X124810000Y-97540000D02*
X124810000Y-98860000D01*
X124810000Y-98860000D02*
X125770000Y-98860000D01*
X125770000Y-97540000D02*
X124810000Y-97540000D01*
X126630000Y-97540000D02*
X127590000Y-97540000D01*
X127590000Y-97540000D02*
X127590000Y-98860000D01*
X127590000Y-98860000D02*
X126630000Y-98860000D01*
%TO.C,U12*%
X170370000Y-115080000D02*
X170370000Y-118120000D01*
X170370000Y-118120000D02*
X175430000Y-118120000D01*
X175430000Y-115080000D02*
X170370000Y-115080000D01*
X175430000Y-118120000D02*
X175430000Y-115080000D01*
D11*
X170400000Y-113830000D02*
G75*
G02*
X170100000Y-113830000I-150000J0D01*
G01*
X170100000Y-113830000D02*
G75*
G02*
X170400000Y-113830000I150000J0D01*
G01*
X171140000Y-115830000D02*
G75*
G02*
X170840000Y-115830000I-150000J0D01*
G01*
X170840000Y-115830000D02*
G75*
G02*
X171140000Y-115830000I150000J0D01*
G01*
D10*
%TO.C,U9*%
X128730000Y-92170000D02*
X128730000Y-95230000D01*
X128730000Y-95230000D02*
X129470000Y-95230000D01*
X129470000Y-92170000D02*
X128730000Y-92170000D01*
X129470000Y-95230000D02*
X129470000Y-92170000D01*
D11*
X130480000Y-92090000D02*
G75*
G02*
X130180000Y-92090000I-150000J0D01*
G01*
X130180000Y-92090000D02*
G75*
G02*
X130480000Y-92090000I150000J0D01*
G01*
D12*
%TO.C,D6*%
X201700000Y-122500000D02*
X201700000Y-123500000D01*
X202560000Y-122500000D02*
X201700000Y-122500000D01*
X203510000Y-123900000D02*
X202880000Y-123900000D01*
X204700000Y-122500000D02*
X203830000Y-122500000D01*
X204700000Y-122500000D02*
X204700000Y-123500000D01*
D10*
%TO.C,U11*%
X199770000Y-114380000D02*
X199770000Y-117420000D01*
X199770000Y-117420000D02*
X204830000Y-117420000D01*
X204830000Y-114380000D02*
X199770000Y-114380000D01*
X204830000Y-117420000D02*
X204830000Y-114380000D01*
D11*
X199800000Y-113130000D02*
G75*
G02*
X199500000Y-113130000I-150000J0D01*
G01*
X199500000Y-113130000D02*
G75*
G02*
X199800000Y-113130000I150000J0D01*
G01*
X200540000Y-115130000D02*
G75*
G02*
X200240000Y-115130000I-150000J0D01*
G01*
X200240000Y-115130000D02*
G75*
G02*
X200540000Y-115130000I150000J0D01*
G01*
D12*
%TO.C,C24*%
X146790000Y-115920000D02*
X146790000Y-115120000D01*
X146790000Y-116480000D02*
X146790000Y-117280000D01*
X147100000Y-117590000D02*
X147900000Y-117590000D01*
X147900000Y-114810000D02*
X147100000Y-114810000D01*
X148210000Y-115920000D02*
X148210000Y-115120000D01*
X148210000Y-116480000D02*
X148210000Y-117280000D01*
X146790000Y-115120000D02*
G75*
G02*
X147100000Y-114810000I310000J0D01*
G01*
X147100000Y-117590000D02*
G75*
G02*
X146790000Y-117280000I0J310000D01*
G01*
X147900000Y-114810000D02*
G75*
G02*
X148210000Y-115120000I0J-310000D01*
G01*
X148210000Y-117280000D02*
G75*
G02*
X147900000Y-117590000I-310000J0D01*
G01*
D10*
%TO.C,U10*%
X140770000Y-114680000D02*
X140770000Y-117720000D01*
X140770000Y-117720000D02*
X145830000Y-117720000D01*
X145830000Y-114680000D02*
X140770000Y-114680000D01*
X145830000Y-117720000D02*
X145830000Y-114680000D01*
D11*
X140800000Y-113430000D02*
G75*
G02*
X140500000Y-113430000I-150000J0D01*
G01*
X140500000Y-113430000D02*
G75*
G02*
X140800000Y-113430000I150000J0D01*
G01*
X141540000Y-115430000D02*
G75*
G02*
X141240000Y-115430000I-150000J0D01*
G01*
X141240000Y-115430000D02*
G75*
G02*
X141540000Y-115430000I150000J0D01*
G01*
%TD*%
M02*
