%TF.GenerationSoftware,KiCad,Pcbnew,9.0.6*%
%TF.CreationDate,2026-01-03T23:52:13+01:00*%
%TF.ProjectId,Artnet-Node,4172746e-6574-42d4-9e6f-64652e6b6963,rev?*%
%TF.SameCoordinates,Original*%
%TF.FileFunction,Legend,Top*%
%TF.FilePolarity,Positive*%
%FSLAX46Y46*%
G04 Gerber Fmt 4.6, Leading zero omitted, Abs format (unit mm)*
G04 Created by KiCad (PCBNEW 9.0.6) date 2026-01-03 23:52:13*
%MOMM*%
%LPD*%
G01*
G04 APERTURE LIST*
%ADD10C,0.150000*%
%ADD11C,0.250000*%
%ADD12C,0.400000*%
%ADD13C,0.120000*%
%ADD14C,0.200000*%
%ADD15C,0.300000*%
%ADD16C,0.080000*%
G04 APERTURE END LIST*
D10*
X113416666Y-124204819D02*
X113416666Y-124919104D01*
X113416666Y-124919104D02*
X113369047Y-125061961D01*
X113369047Y-125061961D02*
X113273809Y-125157200D01*
X113273809Y-125157200D02*
X113130952Y-125204819D01*
X113130952Y-125204819D02*
X113035714Y-125204819D01*
X114369047Y-124204819D02*
X113892857Y-124204819D01*
X113892857Y-124204819D02*
X113845238Y-124681009D01*
X113845238Y-124681009D02*
X113892857Y-124633390D01*
X113892857Y-124633390D02*
X113988095Y-124585771D01*
X113988095Y-124585771D02*
X114226190Y-124585771D01*
X114226190Y-124585771D02*
X114321428Y-124633390D01*
X114321428Y-124633390D02*
X114369047Y-124681009D01*
X114369047Y-124681009D02*
X114416666Y-124776247D01*
X114416666Y-124776247D02*
X114416666Y-125014342D01*
X114416666Y-125014342D02*
X114369047Y-125109580D01*
X114369047Y-125109580D02*
X114321428Y-125157200D01*
X114321428Y-125157200D02*
X114226190Y-125204819D01*
X114226190Y-125204819D02*
X113988095Y-125204819D01*
X113988095Y-125204819D02*
X113892857Y-125157200D01*
X113892857Y-125157200D02*
X113845238Y-125109580D01*
X143416666Y-124204819D02*
X143416666Y-124919104D01*
X143416666Y-124919104D02*
X143369047Y-125061961D01*
X143369047Y-125061961D02*
X143273809Y-125157200D01*
X143273809Y-125157200D02*
X143130952Y-125204819D01*
X143130952Y-125204819D02*
X143035714Y-125204819D01*
X144321428Y-124538152D02*
X144321428Y-125204819D01*
X144083333Y-124157200D02*
X143845238Y-124871485D01*
X143845238Y-124871485D02*
X144464285Y-124871485D01*
X173416666Y-124204819D02*
X173416666Y-124919104D01*
X173416666Y-124919104D02*
X173369047Y-125061961D01*
X173369047Y-125061961D02*
X173273809Y-125157200D01*
X173273809Y-125157200D02*
X173130952Y-125204819D01*
X173130952Y-125204819D02*
X173035714Y-125204819D01*
X173797619Y-124204819D02*
X174416666Y-124204819D01*
X174416666Y-124204819D02*
X174083333Y-124585771D01*
X174083333Y-124585771D02*
X174226190Y-124585771D01*
X174226190Y-124585771D02*
X174321428Y-124633390D01*
X174321428Y-124633390D02*
X174369047Y-124681009D01*
X174369047Y-124681009D02*
X174416666Y-124776247D01*
X174416666Y-124776247D02*
X174416666Y-125014342D01*
X174416666Y-125014342D02*
X174369047Y-125109580D01*
X174369047Y-125109580D02*
X174321428Y-125157200D01*
X174321428Y-125157200D02*
X174226190Y-125204819D01*
X174226190Y-125204819D02*
X173940476Y-125204819D01*
X173940476Y-125204819D02*
X173845238Y-125157200D01*
X173845238Y-125157200D02*
X173797619Y-125109580D01*
X203416666Y-124204819D02*
X203416666Y-124919104D01*
X203416666Y-124919104D02*
X203369047Y-125061961D01*
X203369047Y-125061961D02*
X203273809Y-125157200D01*
X203273809Y-125157200D02*
X203130952Y-125204819D01*
X203130952Y-125204819D02*
X203035714Y-125204819D01*
X204416666Y-125204819D02*
X203845238Y-125204819D01*
X204130952Y-125204819D02*
X204130952Y-124204819D01*
X204130952Y-124204819D02*
X204035714Y-124347676D01*
X204035714Y-124347676D02*
X203940476Y-124442914D01*
X203940476Y-124442914D02*
X203845238Y-124490533D01*
X181638095Y-85704819D02*
X181638095Y-84704819D01*
X181638095Y-85181009D02*
X182209523Y-85181009D01*
X182209523Y-85704819D02*
X182209523Y-84704819D01*
X183209523Y-85704819D02*
X182638095Y-85704819D01*
X182923809Y-85704819D02*
X182923809Y-84704819D01*
X182923809Y-84704819D02*
X182828571Y-84847676D01*
X182828571Y-84847676D02*
X182733333Y-84942914D01*
X182733333Y-84942914D02*
X182638095Y-84990533D01*
X185738095Y-132304819D02*
X185738095Y-131304819D01*
X185738095Y-131781009D02*
X186309523Y-131781009D01*
X186309523Y-132304819D02*
X186309523Y-131304819D01*
X186738095Y-131400057D02*
X186785714Y-131352438D01*
X186785714Y-131352438D02*
X186880952Y-131304819D01*
X186880952Y-131304819D02*
X187119047Y-131304819D01*
X187119047Y-131304819D02*
X187214285Y-131352438D01*
X187214285Y-131352438D02*
X187261904Y-131400057D01*
X187261904Y-131400057D02*
X187309523Y-131495295D01*
X187309523Y-131495295D02*
X187309523Y-131590533D01*
X187309523Y-131590533D02*
X187261904Y-131733390D01*
X187261904Y-131733390D02*
X186690476Y-132304819D01*
X186690476Y-132304819D02*
X187309523Y-132304819D01*
X125538095Y-132304819D02*
X125538095Y-131304819D01*
X125538095Y-131781009D02*
X126109523Y-131781009D01*
X126109523Y-132304819D02*
X126109523Y-131304819D01*
X126490476Y-131304819D02*
X127109523Y-131304819D01*
X127109523Y-131304819D02*
X126776190Y-131685771D01*
X126776190Y-131685771D02*
X126919047Y-131685771D01*
X126919047Y-131685771D02*
X127014285Y-131733390D01*
X127014285Y-131733390D02*
X127061904Y-131781009D01*
X127061904Y-131781009D02*
X127109523Y-131876247D01*
X127109523Y-131876247D02*
X127109523Y-132114342D01*
X127109523Y-132114342D02*
X127061904Y-132209580D01*
X127061904Y-132209580D02*
X127014285Y-132257200D01*
X127014285Y-132257200D02*
X126919047Y-132304819D01*
X126919047Y-132304819D02*
X126633333Y-132304819D01*
X126633333Y-132304819D02*
X126538095Y-132257200D01*
X126538095Y-132257200D02*
X126490476Y-132209580D01*
X100938095Y-86704819D02*
X100938095Y-85704819D01*
X100938095Y-86181009D02*
X101509523Y-86181009D01*
X101509523Y-86704819D02*
X101509523Y-85704819D01*
X102414285Y-86038152D02*
X102414285Y-86704819D01*
X102176190Y-85657200D02*
X101938095Y-86371485D01*
X101938095Y-86371485D02*
X102557142Y-86371485D01*
X153966667Y-92987200D02*
X154109524Y-93034819D01*
X154109524Y-93034819D02*
X154347619Y-93034819D01*
X154347619Y-93034819D02*
X154442857Y-92987200D01*
X154442857Y-92987200D02*
X154490476Y-92939580D01*
X154490476Y-92939580D02*
X154538095Y-92844342D01*
X154538095Y-92844342D02*
X154538095Y-92749104D01*
X154538095Y-92749104D02*
X154490476Y-92653866D01*
X154490476Y-92653866D02*
X154442857Y-92606247D01*
X154442857Y-92606247D02*
X154347619Y-92558628D01*
X154347619Y-92558628D02*
X154157143Y-92511009D01*
X154157143Y-92511009D02*
X154061905Y-92463390D01*
X154061905Y-92463390D02*
X154014286Y-92415771D01*
X154014286Y-92415771D02*
X153966667Y-92320533D01*
X153966667Y-92320533D02*
X153966667Y-92225295D01*
X153966667Y-92225295D02*
X154014286Y-92130057D01*
X154014286Y-92130057D02*
X154061905Y-92082438D01*
X154061905Y-92082438D02*
X154157143Y-92034819D01*
X154157143Y-92034819D02*
X154395238Y-92034819D01*
X154395238Y-92034819D02*
X154538095Y-92082438D01*
X154871429Y-92034819D02*
X155109524Y-93034819D01*
X155109524Y-93034819D02*
X155300000Y-92320533D01*
X155300000Y-92320533D02*
X155490476Y-93034819D01*
X155490476Y-93034819D02*
X155728572Y-92034819D01*
X156633333Y-93034819D02*
X156061905Y-93034819D01*
X156347619Y-93034819D02*
X156347619Y-92034819D01*
X156347619Y-92034819D02*
X156252381Y-92177676D01*
X156252381Y-92177676D02*
X156157143Y-92272914D01*
X156157143Y-92272914D02*
X156061905Y-92320533D01*
X136666667Y-92987200D02*
X136809524Y-93034819D01*
X136809524Y-93034819D02*
X137047619Y-93034819D01*
X137047619Y-93034819D02*
X137142857Y-92987200D01*
X137142857Y-92987200D02*
X137190476Y-92939580D01*
X137190476Y-92939580D02*
X137238095Y-92844342D01*
X137238095Y-92844342D02*
X137238095Y-92749104D01*
X137238095Y-92749104D02*
X137190476Y-92653866D01*
X137190476Y-92653866D02*
X137142857Y-92606247D01*
X137142857Y-92606247D02*
X137047619Y-92558628D01*
X137047619Y-92558628D02*
X136857143Y-92511009D01*
X136857143Y-92511009D02*
X136761905Y-92463390D01*
X136761905Y-92463390D02*
X136714286Y-92415771D01*
X136714286Y-92415771D02*
X136666667Y-92320533D01*
X136666667Y-92320533D02*
X136666667Y-92225295D01*
X136666667Y-92225295D02*
X136714286Y-92130057D01*
X136714286Y-92130057D02*
X136761905Y-92082438D01*
X136761905Y-92082438D02*
X136857143Y-92034819D01*
X136857143Y-92034819D02*
X137095238Y-92034819D01*
X137095238Y-92034819D02*
X137238095Y-92082438D01*
X137571429Y-92034819D02*
X137809524Y-93034819D01*
X137809524Y-93034819D02*
X138000000Y-92320533D01*
X138000000Y-92320533D02*
X138190476Y-93034819D01*
X138190476Y-93034819D02*
X138428572Y-92034819D01*
X138761905Y-92130057D02*
X138809524Y-92082438D01*
X138809524Y-92082438D02*
X138904762Y-92034819D01*
X138904762Y-92034819D02*
X139142857Y-92034819D01*
X139142857Y-92034819D02*
X139238095Y-92082438D01*
X139238095Y-92082438D02*
X139285714Y-92130057D01*
X139285714Y-92130057D02*
X139333333Y-92225295D01*
X139333333Y-92225295D02*
X139333333Y-92320533D01*
X139333333Y-92320533D02*
X139285714Y-92463390D01*
X139285714Y-92463390D02*
X138714286Y-93034819D01*
X138714286Y-93034819D02*
X139333333Y-93034819D01*
X145466667Y-92987200D02*
X145609524Y-93034819D01*
X145609524Y-93034819D02*
X145847619Y-93034819D01*
X145847619Y-93034819D02*
X145942857Y-92987200D01*
X145942857Y-92987200D02*
X145990476Y-92939580D01*
X145990476Y-92939580D02*
X146038095Y-92844342D01*
X146038095Y-92844342D02*
X146038095Y-92749104D01*
X146038095Y-92749104D02*
X145990476Y-92653866D01*
X145990476Y-92653866D02*
X145942857Y-92606247D01*
X145942857Y-92606247D02*
X145847619Y-92558628D01*
X145847619Y-92558628D02*
X145657143Y-92511009D01*
X145657143Y-92511009D02*
X145561905Y-92463390D01*
X145561905Y-92463390D02*
X145514286Y-92415771D01*
X145514286Y-92415771D02*
X145466667Y-92320533D01*
X145466667Y-92320533D02*
X145466667Y-92225295D01*
X145466667Y-92225295D02*
X145514286Y-92130057D01*
X145514286Y-92130057D02*
X145561905Y-92082438D01*
X145561905Y-92082438D02*
X145657143Y-92034819D01*
X145657143Y-92034819D02*
X145895238Y-92034819D01*
X145895238Y-92034819D02*
X146038095Y-92082438D01*
X146371429Y-92034819D02*
X146609524Y-93034819D01*
X146609524Y-93034819D02*
X146800000Y-92320533D01*
X146800000Y-92320533D02*
X146990476Y-93034819D01*
X146990476Y-93034819D02*
X147228572Y-92034819D01*
X147514286Y-92034819D02*
X148133333Y-92034819D01*
X148133333Y-92034819D02*
X147800000Y-92415771D01*
X147800000Y-92415771D02*
X147942857Y-92415771D01*
X147942857Y-92415771D02*
X148038095Y-92463390D01*
X148038095Y-92463390D02*
X148085714Y-92511009D01*
X148085714Y-92511009D02*
X148133333Y-92606247D01*
X148133333Y-92606247D02*
X148133333Y-92844342D01*
X148133333Y-92844342D02*
X148085714Y-92939580D01*
X148085714Y-92939580D02*
X148038095Y-92987200D01*
X148038095Y-92987200D02*
X147942857Y-93034819D01*
X147942857Y-93034819D02*
X147657143Y-93034819D01*
X147657143Y-93034819D02*
X147561905Y-92987200D01*
X147561905Y-92987200D02*
X147514286Y-92939580D01*
X193234819Y-101661904D02*
X194044342Y-101661904D01*
X194044342Y-101661904D02*
X194139580Y-101614285D01*
X194139580Y-101614285D02*
X194187200Y-101566666D01*
X194187200Y-101566666D02*
X194234819Y-101471428D01*
X194234819Y-101471428D02*
X194234819Y-101280952D01*
X194234819Y-101280952D02*
X194187200Y-101185714D01*
X194187200Y-101185714D02*
X194139580Y-101138095D01*
X194139580Y-101138095D02*
X194044342Y-101090476D01*
X194044342Y-101090476D02*
X193234819Y-101090476D01*
X193330057Y-100661904D02*
X193282438Y-100614285D01*
X193282438Y-100614285D02*
X193234819Y-100519047D01*
X193234819Y-100519047D02*
X193234819Y-100280952D01*
X193234819Y-100280952D02*
X193282438Y-100185714D01*
X193282438Y-100185714D02*
X193330057Y-100138095D01*
X193330057Y-100138095D02*
X193425295Y-100090476D01*
X193425295Y-100090476D02*
X193520533Y-100090476D01*
X193520533Y-100090476D02*
X193663390Y-100138095D01*
X193663390Y-100138095D02*
X194234819Y-100709523D01*
X194234819Y-100709523D02*
X194234819Y-100090476D01*
X145254819Y-107171904D02*
X146064342Y-107171904D01*
X146064342Y-107171904D02*
X146159580Y-107124285D01*
X146159580Y-107124285D02*
X146207200Y-107076666D01*
X146207200Y-107076666D02*
X146254819Y-106981428D01*
X146254819Y-106981428D02*
X146254819Y-106790952D01*
X146254819Y-106790952D02*
X146207200Y-106695714D01*
X146207200Y-106695714D02*
X146159580Y-106648095D01*
X146159580Y-106648095D02*
X146064342Y-106600476D01*
X146064342Y-106600476D02*
X145254819Y-106600476D01*
X145588152Y-105695714D02*
X146254819Y-105695714D01*
X145207200Y-105933809D02*
X145921485Y-106171904D01*
X145921485Y-106171904D02*
X145921485Y-105552857D01*
X115261904Y-120145180D02*
X115261904Y-119335657D01*
X115261904Y-119335657D02*
X115214285Y-119240419D01*
X115214285Y-119240419D02*
X115166666Y-119192800D01*
X115166666Y-119192800D02*
X115071428Y-119145180D01*
X115071428Y-119145180D02*
X114880952Y-119145180D01*
X114880952Y-119145180D02*
X114785714Y-119192800D01*
X114785714Y-119192800D02*
X114738095Y-119240419D01*
X114738095Y-119240419D02*
X114690476Y-119335657D01*
X114690476Y-119335657D02*
X114690476Y-120145180D01*
X114309523Y-120145180D02*
X113642857Y-120145180D01*
X113642857Y-120145180D02*
X114071428Y-119145180D01*
X205892319Y-120438094D02*
X206701842Y-120438094D01*
X206701842Y-120438094D02*
X206797080Y-120390475D01*
X206797080Y-120390475D02*
X206844700Y-120342856D01*
X206844700Y-120342856D02*
X206892319Y-120247618D01*
X206892319Y-120247618D02*
X206892319Y-120057142D01*
X206892319Y-120057142D02*
X206844700Y-119961904D01*
X206844700Y-119961904D02*
X206797080Y-119914285D01*
X206797080Y-119914285D02*
X206701842Y-119866666D01*
X206701842Y-119866666D02*
X205892319Y-119866666D01*
X206844700Y-119438094D02*
X206892319Y-119295237D01*
X206892319Y-119295237D02*
X206892319Y-119057142D01*
X206892319Y-119057142D02*
X206844700Y-118961904D01*
X206844700Y-118961904D02*
X206797080Y-118914285D01*
X206797080Y-118914285D02*
X206701842Y-118866666D01*
X206701842Y-118866666D02*
X206606604Y-118866666D01*
X206606604Y-118866666D02*
X206511366Y-118914285D01*
X206511366Y-118914285D02*
X206463747Y-118961904D01*
X206463747Y-118961904D02*
X206416128Y-119057142D01*
X206416128Y-119057142D02*
X206368509Y-119247618D01*
X206368509Y-119247618D02*
X206320890Y-119342856D01*
X206320890Y-119342856D02*
X206273271Y-119390475D01*
X206273271Y-119390475D02*
X206178033Y-119438094D01*
X206178033Y-119438094D02*
X206082795Y-119438094D01*
X206082795Y-119438094D02*
X205987557Y-119390475D01*
X205987557Y-119390475D02*
X205939938Y-119342856D01*
X205939938Y-119342856D02*
X205892319Y-119247618D01*
X205892319Y-119247618D02*
X205892319Y-119009523D01*
X205892319Y-119009523D02*
X205939938Y-118866666D01*
X206368509Y-118104761D02*
X206416128Y-117961904D01*
X206416128Y-117961904D02*
X206463747Y-117914285D01*
X206463747Y-117914285D02*
X206558985Y-117866666D01*
X206558985Y-117866666D02*
X206701842Y-117866666D01*
X206701842Y-117866666D02*
X206797080Y-117914285D01*
X206797080Y-117914285D02*
X206844700Y-117961904D01*
X206844700Y-117961904D02*
X206892319Y-118057142D01*
X206892319Y-118057142D02*
X206892319Y-118438094D01*
X206892319Y-118438094D02*
X205892319Y-118438094D01*
X205892319Y-118438094D02*
X205892319Y-118104761D01*
X205892319Y-118104761D02*
X205939938Y-118009523D01*
X205939938Y-118009523D02*
X205987557Y-117961904D01*
X205987557Y-117961904D02*
X206082795Y-117914285D01*
X206082795Y-117914285D02*
X206178033Y-117914285D01*
X206178033Y-117914285D02*
X206273271Y-117961904D01*
X206273271Y-117961904D02*
X206320890Y-118009523D01*
X206320890Y-118009523D02*
X206368509Y-118104761D01*
X206368509Y-118104761D02*
X206368509Y-118438094D01*
X206892319Y-116914285D02*
X206892319Y-117485713D01*
X206892319Y-117199999D02*
X205892319Y-117199999D01*
X205892319Y-117199999D02*
X206035176Y-117295237D01*
X206035176Y-117295237D02*
X206130414Y-117390475D01*
X206130414Y-117390475D02*
X206178033Y-117485713D01*
X161504819Y-115461904D02*
X162314342Y-115461904D01*
X162314342Y-115461904D02*
X162409580Y-115414285D01*
X162409580Y-115414285D02*
X162457200Y-115366666D01*
X162457200Y-115366666D02*
X162504819Y-115271428D01*
X162504819Y-115271428D02*
X162504819Y-115080952D01*
X162504819Y-115080952D02*
X162457200Y-114985714D01*
X162457200Y-114985714D02*
X162409580Y-114938095D01*
X162409580Y-114938095D02*
X162314342Y-114890476D01*
X162314342Y-114890476D02*
X161504819Y-114890476D01*
X162504819Y-113890476D02*
X162504819Y-114461904D01*
X162504819Y-114176190D02*
X161504819Y-114176190D01*
X161504819Y-114176190D02*
X161647676Y-114271428D01*
X161647676Y-114271428D02*
X161742914Y-114366666D01*
X161742914Y-114366666D02*
X161790533Y-114461904D01*
X133704819Y-93190476D02*
X133704819Y-93666666D01*
X133704819Y-93666666D02*
X132704819Y-93666666D01*
X133704819Y-92857142D02*
X132704819Y-92857142D01*
X132704819Y-92857142D02*
X132704819Y-92619047D01*
X132704819Y-92619047D02*
X132752438Y-92476190D01*
X132752438Y-92476190D02*
X132847676Y-92380952D01*
X132847676Y-92380952D02*
X132942914Y-92333333D01*
X132942914Y-92333333D02*
X133133390Y-92285714D01*
X133133390Y-92285714D02*
X133276247Y-92285714D01*
X133276247Y-92285714D02*
X133466723Y-92333333D01*
X133466723Y-92333333D02*
X133561961Y-92380952D01*
X133561961Y-92380952D02*
X133657200Y-92476190D01*
X133657200Y-92476190D02*
X133704819Y-92619047D01*
X133704819Y-92619047D02*
X133704819Y-92857142D01*
X132704819Y-91666666D02*
X132704819Y-91476190D01*
X132704819Y-91476190D02*
X132752438Y-91380952D01*
X132752438Y-91380952D02*
X132847676Y-91285714D01*
X132847676Y-91285714D02*
X133038152Y-91238095D01*
X133038152Y-91238095D02*
X133371485Y-91238095D01*
X133371485Y-91238095D02*
X133561961Y-91285714D01*
X133561961Y-91285714D02*
X133657200Y-91380952D01*
X133657200Y-91380952D02*
X133704819Y-91476190D01*
X133704819Y-91476190D02*
X133704819Y-91666666D01*
X133704819Y-91666666D02*
X133657200Y-91761904D01*
X133657200Y-91761904D02*
X133561961Y-91857142D01*
X133561961Y-91857142D02*
X133371485Y-91904761D01*
X133371485Y-91904761D02*
X133038152Y-91904761D01*
X133038152Y-91904761D02*
X132847676Y-91857142D01*
X132847676Y-91857142D02*
X132752438Y-91761904D01*
X132752438Y-91761904D02*
X132704819Y-91666666D01*
X133704819Y-90285714D02*
X133704819Y-90857142D01*
X133704819Y-90571428D02*
X132704819Y-90571428D01*
X132704819Y-90571428D02*
X132847676Y-90666666D01*
X132847676Y-90666666D02*
X132942914Y-90761904D01*
X132942914Y-90761904D02*
X132990533Y-90857142D01*
X143804761Y-89500057D02*
X143709523Y-89452438D01*
X143709523Y-89452438D02*
X143614285Y-89357200D01*
X143614285Y-89357200D02*
X143471428Y-89214342D01*
X143471428Y-89214342D02*
X143376190Y-89166723D01*
X143376190Y-89166723D02*
X143280952Y-89166723D01*
X143328571Y-89404819D02*
X143233333Y-89357200D01*
X143233333Y-89357200D02*
X143138095Y-89261961D01*
X143138095Y-89261961D02*
X143090476Y-89071485D01*
X143090476Y-89071485D02*
X143090476Y-88738152D01*
X143090476Y-88738152D02*
X143138095Y-88547676D01*
X143138095Y-88547676D02*
X143233333Y-88452438D01*
X143233333Y-88452438D02*
X143328571Y-88404819D01*
X143328571Y-88404819D02*
X143519047Y-88404819D01*
X143519047Y-88404819D02*
X143614285Y-88452438D01*
X143614285Y-88452438D02*
X143709523Y-88547676D01*
X143709523Y-88547676D02*
X143757142Y-88738152D01*
X143757142Y-88738152D02*
X143757142Y-89071485D01*
X143757142Y-89071485D02*
X143709523Y-89261961D01*
X143709523Y-89261961D02*
X143614285Y-89357200D01*
X143614285Y-89357200D02*
X143519047Y-89404819D01*
X143519047Y-89404819D02*
X143328571Y-89404819D01*
X144138095Y-88500057D02*
X144185714Y-88452438D01*
X144185714Y-88452438D02*
X144280952Y-88404819D01*
X144280952Y-88404819D02*
X144519047Y-88404819D01*
X144519047Y-88404819D02*
X144614285Y-88452438D01*
X144614285Y-88452438D02*
X144661904Y-88500057D01*
X144661904Y-88500057D02*
X144709523Y-88595295D01*
X144709523Y-88595295D02*
X144709523Y-88690533D01*
X144709523Y-88690533D02*
X144661904Y-88833390D01*
X144661904Y-88833390D02*
X144090476Y-89404819D01*
X144090476Y-89404819D02*
X144709523Y-89404819D01*
X174338095Y-98554819D02*
X174338095Y-99364342D01*
X174338095Y-99364342D02*
X174385714Y-99459580D01*
X174385714Y-99459580D02*
X174433333Y-99507200D01*
X174433333Y-99507200D02*
X174528571Y-99554819D01*
X174528571Y-99554819D02*
X174719047Y-99554819D01*
X174719047Y-99554819D02*
X174814285Y-99507200D01*
X174814285Y-99507200D02*
X174861904Y-99459580D01*
X174861904Y-99459580D02*
X174909523Y-99364342D01*
X174909523Y-99364342D02*
X174909523Y-98554819D01*
X175290476Y-98554819D02*
X175909523Y-98554819D01*
X175909523Y-98554819D02*
X175576190Y-98935771D01*
X175576190Y-98935771D02*
X175719047Y-98935771D01*
X175719047Y-98935771D02*
X175814285Y-98983390D01*
X175814285Y-98983390D02*
X175861904Y-99031009D01*
X175861904Y-99031009D02*
X175909523Y-99126247D01*
X175909523Y-99126247D02*
X175909523Y-99364342D01*
X175909523Y-99364342D02*
X175861904Y-99459580D01*
X175861904Y-99459580D02*
X175814285Y-99507200D01*
X175814285Y-99507200D02*
X175719047Y-99554819D01*
X175719047Y-99554819D02*
X175433333Y-99554819D01*
X175433333Y-99554819D02*
X175338095Y-99507200D01*
X175338095Y-99507200D02*
X175290476Y-99459580D01*
X112661905Y-84654819D02*
X112661905Y-85464342D01*
X112661905Y-85464342D02*
X112709524Y-85559580D01*
X112709524Y-85559580D02*
X112757143Y-85607200D01*
X112757143Y-85607200D02*
X112852381Y-85654819D01*
X112852381Y-85654819D02*
X113042857Y-85654819D01*
X113042857Y-85654819D02*
X113138095Y-85607200D01*
X113138095Y-85607200D02*
X113185714Y-85559580D01*
X113185714Y-85559580D02*
X113233333Y-85464342D01*
X113233333Y-85464342D02*
X113233333Y-84654819D01*
X114233333Y-85654819D02*
X113661905Y-85654819D01*
X113947619Y-85654819D02*
X113947619Y-84654819D01*
X113947619Y-84654819D02*
X113852381Y-84797676D01*
X113852381Y-84797676D02*
X113757143Y-84892914D01*
X113757143Y-84892914D02*
X113661905Y-84940533D01*
X114566667Y-84654819D02*
X115185714Y-84654819D01*
X115185714Y-84654819D02*
X114852381Y-85035771D01*
X114852381Y-85035771D02*
X114995238Y-85035771D01*
X114995238Y-85035771D02*
X115090476Y-85083390D01*
X115090476Y-85083390D02*
X115138095Y-85131009D01*
X115138095Y-85131009D02*
X115185714Y-85226247D01*
X115185714Y-85226247D02*
X115185714Y-85464342D01*
X115185714Y-85464342D02*
X115138095Y-85559580D01*
X115138095Y-85559580D02*
X115090476Y-85607200D01*
X115090476Y-85607200D02*
X114995238Y-85654819D01*
X114995238Y-85654819D02*
X114709524Y-85654819D01*
X114709524Y-85654819D02*
X114614286Y-85607200D01*
X114614286Y-85607200D02*
X114566667Y-85559580D01*
X195961905Y-116154819D02*
X195961905Y-115154819D01*
X195961905Y-115154819D02*
X196200000Y-115154819D01*
X196200000Y-115154819D02*
X196342857Y-115202438D01*
X196342857Y-115202438D02*
X196438095Y-115297676D01*
X196438095Y-115297676D02*
X196485714Y-115392914D01*
X196485714Y-115392914D02*
X196533333Y-115583390D01*
X196533333Y-115583390D02*
X196533333Y-115726247D01*
X196533333Y-115726247D02*
X196485714Y-115916723D01*
X196485714Y-115916723D02*
X196438095Y-116011961D01*
X196438095Y-116011961D02*
X196342857Y-116107200D01*
X196342857Y-116107200D02*
X196200000Y-116154819D01*
X196200000Y-116154819D02*
X195961905Y-116154819D01*
X197485714Y-116154819D02*
X196914286Y-116154819D01*
X197200000Y-116154819D02*
X197200000Y-115154819D01*
X197200000Y-115154819D02*
X197104762Y-115297676D01*
X197104762Y-115297676D02*
X197009524Y-115392914D01*
X197009524Y-115392914D02*
X196914286Y-115440533D01*
X138157142Y-97759580D02*
X138109523Y-97807200D01*
X138109523Y-97807200D02*
X137966666Y-97854819D01*
X137966666Y-97854819D02*
X137871428Y-97854819D01*
X137871428Y-97854819D02*
X137728571Y-97807200D01*
X137728571Y-97807200D02*
X137633333Y-97711961D01*
X137633333Y-97711961D02*
X137585714Y-97616723D01*
X137585714Y-97616723D02*
X137538095Y-97426247D01*
X137538095Y-97426247D02*
X137538095Y-97283390D01*
X137538095Y-97283390D02*
X137585714Y-97092914D01*
X137585714Y-97092914D02*
X137633333Y-96997676D01*
X137633333Y-96997676D02*
X137728571Y-96902438D01*
X137728571Y-96902438D02*
X137871428Y-96854819D01*
X137871428Y-96854819D02*
X137966666Y-96854819D01*
X137966666Y-96854819D02*
X138109523Y-96902438D01*
X138109523Y-96902438D02*
X138157142Y-96950057D01*
X138538095Y-96950057D02*
X138585714Y-96902438D01*
X138585714Y-96902438D02*
X138680952Y-96854819D01*
X138680952Y-96854819D02*
X138919047Y-96854819D01*
X138919047Y-96854819D02*
X139014285Y-96902438D01*
X139014285Y-96902438D02*
X139061904Y-96950057D01*
X139061904Y-96950057D02*
X139109523Y-97045295D01*
X139109523Y-97045295D02*
X139109523Y-97140533D01*
X139109523Y-97140533D02*
X139061904Y-97283390D01*
X139061904Y-97283390D02*
X138490476Y-97854819D01*
X138490476Y-97854819D02*
X139109523Y-97854819D01*
X140061904Y-97854819D02*
X139490476Y-97854819D01*
X139776190Y-97854819D02*
X139776190Y-96854819D01*
X139776190Y-96854819D02*
X139680952Y-96997676D01*
X139680952Y-96997676D02*
X139585714Y-97092914D01*
X139585714Y-97092914D02*
X139490476Y-97140533D01*
X150661905Y-97454819D02*
X150661905Y-96454819D01*
X150661905Y-96454819D02*
X150900000Y-96454819D01*
X150900000Y-96454819D02*
X151042857Y-96502438D01*
X151042857Y-96502438D02*
X151138095Y-96597676D01*
X151138095Y-96597676D02*
X151185714Y-96692914D01*
X151185714Y-96692914D02*
X151233333Y-96883390D01*
X151233333Y-96883390D02*
X151233333Y-97026247D01*
X151233333Y-97026247D02*
X151185714Y-97216723D01*
X151185714Y-97216723D02*
X151138095Y-97311961D01*
X151138095Y-97311961D02*
X151042857Y-97407200D01*
X151042857Y-97407200D02*
X150900000Y-97454819D01*
X150900000Y-97454819D02*
X150661905Y-97454819D01*
X151614286Y-96550057D02*
X151661905Y-96502438D01*
X151661905Y-96502438D02*
X151757143Y-96454819D01*
X151757143Y-96454819D02*
X151995238Y-96454819D01*
X151995238Y-96454819D02*
X152090476Y-96502438D01*
X152090476Y-96502438D02*
X152138095Y-96550057D01*
X152138095Y-96550057D02*
X152185714Y-96645295D01*
X152185714Y-96645295D02*
X152185714Y-96740533D01*
X152185714Y-96740533D02*
X152138095Y-96883390D01*
X152138095Y-96883390D02*
X151566667Y-97454819D01*
X151566667Y-97454819D02*
X152185714Y-97454819D01*
X138238095Y-100604819D02*
X138238095Y-101414342D01*
X138238095Y-101414342D02*
X138285714Y-101509580D01*
X138285714Y-101509580D02*
X138333333Y-101557200D01*
X138333333Y-101557200D02*
X138428571Y-101604819D01*
X138428571Y-101604819D02*
X138619047Y-101604819D01*
X138619047Y-101604819D02*
X138714285Y-101557200D01*
X138714285Y-101557200D02*
X138761904Y-101509580D01*
X138761904Y-101509580D02*
X138809523Y-101414342D01*
X138809523Y-101414342D02*
X138809523Y-100604819D01*
X139714285Y-100604819D02*
X139523809Y-100604819D01*
X139523809Y-100604819D02*
X139428571Y-100652438D01*
X139428571Y-100652438D02*
X139380952Y-100700057D01*
X139380952Y-100700057D02*
X139285714Y-100842914D01*
X139285714Y-100842914D02*
X139238095Y-101033390D01*
X139238095Y-101033390D02*
X139238095Y-101414342D01*
X139238095Y-101414342D02*
X139285714Y-101509580D01*
X139285714Y-101509580D02*
X139333333Y-101557200D01*
X139333333Y-101557200D02*
X139428571Y-101604819D01*
X139428571Y-101604819D02*
X139619047Y-101604819D01*
X139619047Y-101604819D02*
X139714285Y-101557200D01*
X139714285Y-101557200D02*
X139761904Y-101509580D01*
X139761904Y-101509580D02*
X139809523Y-101414342D01*
X139809523Y-101414342D02*
X139809523Y-101176247D01*
X139809523Y-101176247D02*
X139761904Y-101081009D01*
X139761904Y-101081009D02*
X139714285Y-101033390D01*
X139714285Y-101033390D02*
X139619047Y-100985771D01*
X139619047Y-100985771D02*
X139428571Y-100985771D01*
X139428571Y-100985771D02*
X139333333Y-101033390D01*
X139333333Y-101033390D02*
X139285714Y-101081009D01*
X139285714Y-101081009D02*
X139238095Y-101176247D01*
X153760476Y-116764819D02*
X154427142Y-117764819D01*
X154427142Y-116764819D02*
X153760476Y-117764819D01*
X154760476Y-116860057D02*
X154808095Y-116812438D01*
X154808095Y-116812438D02*
X154903333Y-116764819D01*
X154903333Y-116764819D02*
X155141428Y-116764819D01*
X155141428Y-116764819D02*
X155236666Y-116812438D01*
X155236666Y-116812438D02*
X155284285Y-116860057D01*
X155284285Y-116860057D02*
X155331904Y-116955295D01*
X155331904Y-116955295D02*
X155331904Y-117050533D01*
X155331904Y-117050533D02*
X155284285Y-117193390D01*
X155284285Y-117193390D02*
X154712857Y-117764819D01*
X154712857Y-117764819D02*
X155331904Y-117764819D01*
X130204761Y-101150057D02*
X130109523Y-101102438D01*
X130109523Y-101102438D02*
X130014285Y-101007200D01*
X130014285Y-101007200D02*
X129871428Y-100864342D01*
X129871428Y-100864342D02*
X129776190Y-100816723D01*
X129776190Y-100816723D02*
X129680952Y-100816723D01*
X129728571Y-101054819D02*
X129633333Y-101007200D01*
X129633333Y-101007200D02*
X129538095Y-100911961D01*
X129538095Y-100911961D02*
X129490476Y-100721485D01*
X129490476Y-100721485D02*
X129490476Y-100388152D01*
X129490476Y-100388152D02*
X129538095Y-100197676D01*
X129538095Y-100197676D02*
X129633333Y-100102438D01*
X129633333Y-100102438D02*
X129728571Y-100054819D01*
X129728571Y-100054819D02*
X129919047Y-100054819D01*
X129919047Y-100054819D02*
X130014285Y-100102438D01*
X130014285Y-100102438D02*
X130109523Y-100197676D01*
X130109523Y-100197676D02*
X130157142Y-100388152D01*
X130157142Y-100388152D02*
X130157142Y-100721485D01*
X130157142Y-100721485D02*
X130109523Y-100911961D01*
X130109523Y-100911961D02*
X130014285Y-101007200D01*
X130014285Y-101007200D02*
X129919047Y-101054819D01*
X129919047Y-101054819D02*
X129728571Y-101054819D01*
X131109523Y-101054819D02*
X130538095Y-101054819D01*
X130823809Y-101054819D02*
X130823809Y-100054819D01*
X130823809Y-100054819D02*
X130728571Y-100197676D01*
X130728571Y-100197676D02*
X130633333Y-100292914D01*
X130633333Y-100292914D02*
X130538095Y-100340533D01*
X150761905Y-90654819D02*
X150761905Y-89654819D01*
X150761905Y-89654819D02*
X151000000Y-89654819D01*
X151000000Y-89654819D02*
X151142857Y-89702438D01*
X151142857Y-89702438D02*
X151238095Y-89797676D01*
X151238095Y-89797676D02*
X151285714Y-89892914D01*
X151285714Y-89892914D02*
X151333333Y-90083390D01*
X151333333Y-90083390D02*
X151333333Y-90226247D01*
X151333333Y-90226247D02*
X151285714Y-90416723D01*
X151285714Y-90416723D02*
X151238095Y-90511961D01*
X151238095Y-90511961D02*
X151142857Y-90607200D01*
X151142857Y-90607200D02*
X151000000Y-90654819D01*
X151000000Y-90654819D02*
X150761905Y-90654819D01*
X151666667Y-89654819D02*
X152285714Y-89654819D01*
X152285714Y-89654819D02*
X151952381Y-90035771D01*
X151952381Y-90035771D02*
X152095238Y-90035771D01*
X152095238Y-90035771D02*
X152190476Y-90083390D01*
X152190476Y-90083390D02*
X152238095Y-90131009D01*
X152238095Y-90131009D02*
X152285714Y-90226247D01*
X152285714Y-90226247D02*
X152285714Y-90464342D01*
X152285714Y-90464342D02*
X152238095Y-90559580D01*
X152238095Y-90559580D02*
X152190476Y-90607200D01*
X152190476Y-90607200D02*
X152095238Y-90654819D01*
X152095238Y-90654819D02*
X151809524Y-90654819D01*
X151809524Y-90654819D02*
X151714286Y-90607200D01*
X151714286Y-90607200D02*
X151666667Y-90559580D01*
D11*
%TO.C,J5*%
X101500000Y-139450000D02*
X98700000Y-139450000D01*
X101500000Y-139450000D02*
X101500000Y-126450000D01*
X121500000Y-139450000D02*
X121500000Y-126450000D01*
X98700000Y-145950000D02*
X98700000Y-139450000D01*
X124000000Y-139450000D02*
X121500000Y-139450000D01*
X101500000Y-145950000D02*
X101500000Y-148250000D01*
X121500000Y-145950000D02*
X121500000Y-148250000D01*
X121500000Y-126450000D02*
X101500000Y-126450000D01*
X121000000Y-148750000D02*
X102000000Y-148750000D01*
X124000000Y-145950000D02*
X124000000Y-139450000D01*
X124000000Y-145950000D02*
X98700000Y-145950000D01*
X121500000Y-148250000D02*
G75*
G02*
X121000000Y-148750000I-500000J0D01*
G01*
X102000000Y-148750000D02*
G75*
G02*
X101500000Y-148250000I0J500000D01*
G01*
%TO.C,J4*%
X131500000Y-139450000D02*
X128700000Y-139450000D01*
X131500000Y-139450000D02*
X131500000Y-126450000D01*
X151500000Y-139450000D02*
X151500000Y-126450000D01*
X128700000Y-145950000D02*
X128700000Y-139450000D01*
X154000000Y-139450000D02*
X151500000Y-139450000D01*
X131500000Y-145950000D02*
X131500000Y-148250000D01*
X151500000Y-145950000D02*
X151500000Y-148250000D01*
X151500000Y-126450000D02*
X131500000Y-126450000D01*
X151000000Y-148750000D02*
X132000000Y-148750000D01*
X154000000Y-145950000D02*
X154000000Y-139450000D01*
X154000000Y-145950000D02*
X128700000Y-145950000D01*
X151500000Y-148250000D02*
G75*
G02*
X151000000Y-148750000I-500000J0D01*
G01*
X132000000Y-148750000D02*
G75*
G02*
X131500000Y-148250000I0J500000D01*
G01*
%TO.C,J3*%
X161500000Y-139450000D02*
X158700000Y-139450000D01*
X161500000Y-139450000D02*
X161500000Y-126450000D01*
X181500000Y-139450000D02*
X181500000Y-126450000D01*
X158700000Y-145950000D02*
X158700000Y-139450000D01*
X184000000Y-139450000D02*
X181500000Y-139450000D01*
X161500000Y-145950000D02*
X161500000Y-148250000D01*
X181500000Y-145950000D02*
X181500000Y-148250000D01*
X181500000Y-126450000D02*
X161500000Y-126450000D01*
X181000000Y-148750000D02*
X162000000Y-148750000D01*
X184000000Y-145950000D02*
X184000000Y-139450000D01*
X184000000Y-145950000D02*
X158700000Y-145950000D01*
X181500000Y-148250000D02*
G75*
G02*
X181000000Y-148750000I-500000J0D01*
G01*
X162000000Y-148750000D02*
G75*
G02*
X161500000Y-148250000I0J500000D01*
G01*
%TO.C,J1*%
X191500000Y-139450000D02*
X188700000Y-139450000D01*
X191500000Y-139450000D02*
X191500000Y-126450000D01*
X211500000Y-139450000D02*
X211500000Y-126450000D01*
X188700000Y-145950000D02*
X188700000Y-139450000D01*
X214000000Y-139450000D02*
X211500000Y-139450000D01*
X191500000Y-145950000D02*
X191500000Y-148250000D01*
X211500000Y-145950000D02*
X211500000Y-148250000D01*
X211500000Y-126450000D02*
X191500000Y-126450000D01*
X211000000Y-148750000D02*
X192000000Y-148750000D01*
X214000000Y-145950000D02*
X214000000Y-139450000D01*
X214000000Y-145950000D02*
X188700000Y-145950000D01*
X211500000Y-148250000D02*
G75*
G02*
X211000000Y-148750000I-500000J0D01*
G01*
X192000000Y-148750000D02*
G75*
G02*
X191500000Y-148250000I0J500000D01*
G01*
D10*
%TO.C,SW1*%
X157550000Y-89030000D02*
X157550000Y-88250000D01*
X157040000Y-89030000D02*
X157550000Y-89030000D01*
X156300000Y-86470000D02*
X156370000Y-86470000D01*
X156300000Y-86470000D02*
X154300000Y-86470000D01*
X156300000Y-85630000D02*
X156300000Y-86470000D01*
X155770000Y-89030000D02*
X155930000Y-89030000D01*
X154640000Y-89030000D02*
X154810000Y-89030000D01*
X154300000Y-86470000D02*
X154300000Y-85630000D01*
X154300000Y-85630000D02*
X156300000Y-85630000D01*
X154230000Y-86470000D02*
X154300000Y-86470000D01*
X153050000Y-89030000D02*
X153530000Y-89030000D01*
X153050000Y-89030000D02*
X153050000Y-88250000D01*
%TO.C,SW2*%
X140250000Y-89030000D02*
X140250000Y-88250000D01*
X139740000Y-89030000D02*
X140250000Y-89030000D01*
X139000000Y-86470000D02*
X139070000Y-86470000D01*
X139000000Y-86470000D02*
X137000000Y-86470000D01*
X139000000Y-85630000D02*
X139000000Y-86470000D01*
X138470000Y-89030000D02*
X138630000Y-89030000D01*
X137340000Y-89030000D02*
X137510000Y-89030000D01*
X137000000Y-86470000D02*
X137000000Y-85630000D01*
X137000000Y-85630000D02*
X139000000Y-85630000D01*
X136930000Y-86470000D02*
X137000000Y-86470000D01*
X135750000Y-89030000D02*
X136230000Y-89030000D01*
X135750000Y-89030000D02*
X135750000Y-88250000D01*
%TO.C,SW3*%
X149050000Y-89030000D02*
X149050000Y-88250000D01*
X148540000Y-89030000D02*
X149050000Y-89030000D01*
X147800000Y-86470000D02*
X147870000Y-86470000D01*
X147800000Y-86470000D02*
X145800000Y-86470000D01*
X147800000Y-85630000D02*
X147800000Y-86470000D01*
X147270000Y-89030000D02*
X147430000Y-89030000D01*
X146140000Y-89030000D02*
X146310000Y-89030000D01*
X145800000Y-86470000D02*
X145800000Y-85630000D01*
X145800000Y-85630000D02*
X147800000Y-85630000D01*
X145730000Y-86470000D02*
X145800000Y-86470000D01*
X144550000Y-89030000D02*
X145030000Y-89030000D01*
X144550000Y-89030000D02*
X144550000Y-88250000D01*
D11*
%TO.C,U2*%
X217571287Y-109047336D02*
G75*
G02*
X211820000Y-111100000I-6021288J7787338D01*
G01*
X216860987Y-109048059D02*
G75*
G02*
X211820000Y-110600000I-5310987J8288059D01*
G01*
X211820000Y-91200000D02*
G75*
G02*
X216860987Y-92751941I-269998J-9839996D01*
G01*
X211820000Y-90700000D02*
G75*
G02*
X217571287Y-92752664I-270000J-9840000D01*
G01*
D12*
X196930001Y-107900000D02*
X196930001Y-107900000D01*
X196930001Y-107900000D01*
X196930001Y-107900000D01*
X196930001Y-107900000D01*
X196930001Y-107900000D01*
X196930001Y-107900001D01*
X196930001Y-107900001D01*
X196930001Y-107900001D01*
X196930001Y-107900001D01*
X196930001Y-107900001D01*
X196930001Y-107900001D01*
X196930001Y-107900001D01*
X196930000Y-107900001D01*
X196930000Y-107900001D01*
X196930000Y-107900001D01*
X196930000Y-107900001D01*
X196930000Y-107900001D01*
X196930000Y-107900001D01*
X196930000Y-107900001D01*
X196930000Y-107900001D01*
X196930000Y-107900001D01*
X196930000Y-107900001D01*
X196930000Y-107900001D01*
X196930000Y-107900001D01*
X196929999Y-107900001D01*
X196929999Y-107900001D01*
X196929999Y-107900001D01*
X196929999Y-107900001D01*
X196929999Y-107900001D01*
X196929999Y-107900001D01*
X196929999Y-107900000D01*
X196929999Y-107900000D01*
X196929999Y-107900000D01*
X196929999Y-107900000D01*
X196929999Y-107900000D01*
X196929999Y-107900000D01*
X196929999Y-107900000D02*
X196929999Y-107900000D01*
X196929999Y-107900000D01*
X196929999Y-107900000D01*
X196929999Y-107900000D01*
X196929999Y-107900000D01*
X196929999Y-107900000D01*
X196929999Y-107899999D01*
X196929999Y-107899999D01*
X196929999Y-107899999D01*
X196929999Y-107899999D01*
X196929999Y-107899999D01*
X196930000Y-107899999D01*
X196930000Y-107899999D01*
X196930000Y-107899999D01*
X196930000Y-107899999D01*
X196930000Y-107899999D01*
X196930000Y-107899999D01*
X196930000Y-107899999D01*
X196930000Y-107899999D01*
X196930000Y-107899999D01*
X196930000Y-107899999D01*
X196930000Y-107899999D01*
X196930000Y-107899999D01*
X196930001Y-107899999D01*
X196930001Y-107899999D01*
X196930001Y-107899999D01*
X196930001Y-107899999D01*
X196930001Y-107899999D01*
X196930001Y-107899999D01*
X196930001Y-107900000D01*
X196930001Y-107900000D01*
X196930001Y-107900000D01*
X196930001Y-107900000D01*
X196930001Y-107900000D01*
X196930001Y-107900000D01*
X196930001Y-107900000D01*
D11*
X217570000Y-109050000D02*
X217570000Y-92750000D01*
X217570000Y-106000000D02*
X211820000Y-104900000D01*
X217570000Y-105160000D02*
X213120000Y-104300000D01*
X217570000Y-96710000D02*
X213120000Y-97560000D01*
X217570000Y-95860000D02*
X211820000Y-96960000D01*
X217570000Y-92750000D02*
X204990000Y-92750000D01*
X213120000Y-104300000D02*
X213120000Y-103750000D01*
X213120000Y-103750000D02*
X217570000Y-103160000D01*
X213120000Y-98110000D02*
X217570000Y-98710000D01*
X213120000Y-97560000D02*
X213120000Y-98110000D01*
X211820000Y-111100000D02*
X211820000Y-110600000D01*
X211820000Y-104900000D02*
X211820000Y-103150000D01*
X211820000Y-103150000D02*
X217570000Y-102340000D01*
X211820000Y-98710000D02*
X217570000Y-99520000D01*
X211820000Y-96960000D02*
X211820000Y-98710000D01*
X211820000Y-90700000D02*
X211820000Y-91200000D01*
X204990000Y-109050000D02*
X217570000Y-109050000D01*
X202250000Y-92750000D02*
X195970000Y-92750000D01*
X195970000Y-109050000D02*
X202250000Y-109050000D01*
X195970000Y-92750000D02*
X195970000Y-109050000D01*
%TO.C,U4*%
X136560000Y-103380000D02*
G75*
G02*
X136220000Y-103380000I-170000J0D01*
G01*
X136220000Y-103380000D02*
G75*
G02*
X136560000Y-103380000I170000J0D01*
G01*
X139692570Y-103904391D02*
G75*
G02*
X138090000Y-103910000I-802570J364391D01*
G01*
X140940000Y-108960000D02*
X136840000Y-108960000D01*
X140940000Y-103860000D02*
X140940000Y-108960000D01*
X139690000Y-103860000D02*
X140940000Y-103860000D01*
X138090000Y-103860000D02*
X136840000Y-103860000D01*
X136840000Y-108960000D02*
X136840000Y-103860000D01*
D13*
%TO.C,U7*%
X97075000Y-118800000D02*
X96575000Y-118300000D01*
X97075000Y-118300000D01*
X97075000Y-118800000D01*
G36*
X97075000Y-118800000D02*
G01*
X96575000Y-118300000D01*
X97075000Y-118300000D01*
X97075000Y-118800000D01*
G37*
X116050000Y-118300000D02*
X116050000Y-116800000D01*
X116050000Y-99900000D02*
X116050000Y-101400000D01*
X116050000Y-99900000D02*
X115050000Y-99900000D01*
X115050000Y-118300000D02*
X116050000Y-118300000D01*
X90200000Y-118300000D02*
X96400000Y-118300000D01*
X90200000Y-118300000D02*
X90200000Y-99900000D01*
X90200000Y-99900000D02*
X96400000Y-99900000D01*
D11*
%TO.C,USB1*%
X217787500Y-123200000D02*
X216167500Y-123200000D01*
X217787500Y-114200000D02*
X217787500Y-123200000D01*
X217637500Y-114130000D02*
X216167500Y-114130000D01*
X214207500Y-123200000D02*
X212217500Y-123200000D01*
X214207500Y-114130000D02*
X212217500Y-114130000D01*
D10*
%TO.C,R21*%
X133240000Y-105010000D02*
X134560000Y-105010000D01*
X133240000Y-105970000D02*
X133240000Y-105010000D01*
X133240000Y-106830000D02*
X133240000Y-107790000D01*
X133240000Y-107790000D02*
X134560000Y-107790000D01*
X134560000Y-105010000D02*
X134560000Y-105970000D01*
X134560000Y-107790000D02*
X134560000Y-106830000D01*
D14*
%TO.C,U1*%
X166960000Y-111390000D02*
X173610000Y-111390000D01*
X166960000Y-117590000D02*
X166960000Y-111390000D01*
X166960000Y-118020000D02*
X166960000Y-117260000D01*
X173610000Y-111390000D02*
X173610000Y-118020000D01*
X173610000Y-118020000D02*
X166960000Y-118020000D01*
D12*
X174360000Y-118080000D02*
G75*
G02*
X174359750Y-118090027I200000J-10003D01*
G01*
D11*
X173300000Y-117320000D02*
G75*
G02*
X172960000Y-117320000I-170000J0D01*
G01*
X172960000Y-117320000D02*
G75*
G02*
X173300000Y-117320000I170000J0D01*
G01*
D10*
%TO.C,R20*%
X143010000Y-104740000D02*
X143970000Y-104740000D01*
X143010000Y-106060000D02*
X143010000Y-104740000D01*
X143970000Y-106060000D02*
X143010000Y-106060000D01*
X144830000Y-106060000D02*
X145790000Y-106060000D01*
X145790000Y-104740000D02*
X144830000Y-104740000D01*
X145790000Y-106060000D02*
X145790000Y-104740000D01*
%TO.C,LDO1*%
X137550000Y-91520000D02*
X137550000Y-92480000D01*
X139250000Y-90470000D02*
X137550000Y-90470000D01*
X139250000Y-93530000D02*
X137550000Y-93530000D01*
D15*
X139690000Y-93650000D02*
G75*
G02*
X139390000Y-93650000I-150000J0D01*
G01*
X139390000Y-93650000D02*
G75*
G02*
X139690000Y-93650000I150000J0D01*
G01*
D11*
%TO.C,L2*%
X174190000Y-122820000D02*
X174190000Y-122020000D01*
X174190000Y-123380000D02*
X174190000Y-124180000D01*
X174500000Y-121710000D02*
X175300000Y-121710000D01*
X175300000Y-124490000D02*
X174500000Y-124490000D01*
X175610000Y-122820000D02*
X175610000Y-122020000D01*
X175610000Y-123380000D02*
X175610000Y-124180000D01*
X174190000Y-122020000D02*
G75*
G02*
X174500000Y-121710000I310000J0D01*
G01*
X174500000Y-124490000D02*
G75*
G02*
X174190000Y-124180000I0J310000D01*
G01*
X175300000Y-121710000D02*
G75*
G02*
X175610000Y-122020000I0J-310000D01*
G01*
X175610000Y-124180000D02*
G75*
G02*
X175300000Y-124490000I-310000J0D01*
G01*
D10*
%TO.C,R14*%
X167710000Y-120740000D02*
X168670000Y-120740000D01*
X167710000Y-122060000D02*
X167710000Y-120740000D01*
X168670000Y-122060000D02*
X167710000Y-122060000D01*
X169530000Y-122060000D02*
X170490000Y-122060000D01*
X170490000Y-120740000D02*
X169530000Y-120740000D01*
X170490000Y-122060000D02*
X170490000Y-120740000D01*
%TO.C,R19*%
X143010000Y-106440000D02*
X143010000Y-107760000D01*
X143010000Y-107760000D02*
X143970000Y-107760000D01*
X143970000Y-106440000D02*
X143010000Y-106440000D01*
X144830000Y-106440000D02*
X145790000Y-106440000D01*
X145790000Y-106440000D02*
X145790000Y-107760000D01*
X145790000Y-107760000D02*
X144830000Y-107760000D01*
D16*
%TO.C,C19*%
X185100000Y-121420000D02*
X185100000Y-124570000D01*
X185100000Y-122680000D02*
X186700000Y-122680000D01*
X186700000Y-121400000D02*
X186700000Y-124600000D01*
D10*
%TO.C,R8*%
X179910000Y-114940000D02*
X179910000Y-116260000D01*
X179910000Y-116260000D02*
X180870000Y-116260000D01*
X180870000Y-114940000D02*
X179910000Y-114940000D01*
X181730000Y-114940000D02*
X182690000Y-114940000D01*
X182690000Y-114940000D02*
X182690000Y-116260000D01*
X182690000Y-116260000D02*
X181730000Y-116260000D01*
D11*
%TO.C,C7*%
X192810000Y-106600000D02*
X192810000Y-105800000D01*
X193920000Y-105490000D02*
X193120000Y-105490000D01*
X193920000Y-106910000D02*
X193120000Y-106910000D01*
X194480000Y-105490000D02*
X195280000Y-105490000D01*
X194480000Y-106910000D02*
X195280000Y-106910000D01*
X195590000Y-105800000D02*
X195590000Y-106600000D01*
X192810000Y-105800000D02*
G75*
G02*
X193120000Y-105490000I310000J0D01*
G01*
X193120000Y-106910000D02*
G75*
G02*
X192810000Y-106600000I0J310000D01*
G01*
X195280000Y-105490000D02*
G75*
G02*
X195590000Y-105800000I0J-310000D01*
G01*
X195590000Y-106600000D02*
G75*
G02*
X195280000Y-106910000I-310000J0D01*
G01*
D10*
%TO.C,R13*%
X176610000Y-114940000D02*
X177570000Y-114940000D01*
X176610000Y-116260000D02*
X176610000Y-114940000D01*
X177570000Y-116260000D02*
X176610000Y-116260000D01*
X178430000Y-116260000D02*
X179390000Y-116260000D01*
X179390000Y-114940000D02*
X178430000Y-114940000D01*
X179390000Y-116260000D02*
X179390000Y-114940000D01*
D11*
%TO.C,L1*%
X172390000Y-122820000D02*
X172390000Y-122020000D01*
X172390000Y-123380000D02*
X172390000Y-124180000D01*
X172700000Y-121710000D02*
X173500000Y-121710000D01*
X173500000Y-124490000D02*
X172700000Y-124490000D01*
X173810000Y-122820000D02*
X173810000Y-122020000D01*
X173810000Y-123380000D02*
X173810000Y-124180000D01*
X172390000Y-122020000D02*
G75*
G02*
X172700000Y-121710000I310000J0D01*
G01*
X172700000Y-124490000D02*
G75*
G02*
X172390000Y-124180000I0J310000D01*
G01*
X173500000Y-121710000D02*
G75*
G02*
X173810000Y-122020000I0J-310000D01*
G01*
X173810000Y-124180000D02*
G75*
G02*
X173500000Y-124490000I-310000J0D01*
G01*
%TO.C,C6*%
X167090000Y-105920000D02*
X167090000Y-105120000D01*
X167090000Y-106480000D02*
X167090000Y-107280000D01*
X167400000Y-104810000D02*
X168200000Y-104810000D01*
X168200000Y-107590000D02*
X167400000Y-107590000D01*
X168510000Y-105920000D02*
X168510000Y-105120000D01*
X168510000Y-106480000D02*
X168510000Y-107280000D01*
X167090000Y-105120000D02*
G75*
G02*
X167400000Y-104810000I310000J0D01*
G01*
X167400000Y-107590000D02*
G75*
G02*
X167090000Y-107280000I0J310000D01*
G01*
X168200000Y-104810000D02*
G75*
G02*
X168510000Y-105120000I0J-310000D01*
G01*
X168510000Y-107280000D02*
G75*
G02*
X168200000Y-107590000I-310000J0D01*
G01*
D10*
%TO.C,R10*%
X176610000Y-116540000D02*
X177570000Y-116540000D01*
X176610000Y-117860000D02*
X176610000Y-116540000D01*
X177570000Y-117860000D02*
X176610000Y-117860000D01*
X178430000Y-117860000D02*
X179390000Y-117860000D01*
X179390000Y-116540000D02*
X178430000Y-116540000D01*
X179390000Y-117860000D02*
X179390000Y-116540000D01*
D16*
%TO.C,C4*%
X98700000Y-120900000D02*
X101900000Y-120900000D01*
X98720000Y-122500000D02*
X101870000Y-122500000D01*
X99980000Y-122500000D02*
X99980000Y-120900000D01*
D10*
%TO.C,Q2*%
X143170000Y-92370000D02*
X143170000Y-93410000D01*
X143170000Y-95430000D02*
X143170000Y-94390000D01*
X144630000Y-92370000D02*
X143170000Y-92370000D01*
X144630000Y-93440000D02*
X144630000Y-94360000D01*
X144630000Y-95430000D02*
X143170000Y-95430000D01*
D11*
%TO.C,C10*%
X196710000Y-114400000D02*
X196710000Y-113600000D01*
X197820000Y-113290000D02*
X197020000Y-113290000D01*
X197820000Y-114710000D02*
X197020000Y-114710000D01*
X198380000Y-113290000D02*
X199180000Y-113290000D01*
X198380000Y-114710000D02*
X199180000Y-114710000D01*
X199490000Y-113600000D02*
X199490000Y-114400000D01*
X196710000Y-113600000D02*
G75*
G02*
X197020000Y-113290000I310000J0D01*
G01*
X197020000Y-114710000D02*
G75*
G02*
X196710000Y-114400000I0J310000D01*
G01*
X199180000Y-113290000D02*
G75*
G02*
X199490000Y-113600000I0J-310000D01*
G01*
X199490000Y-114400000D02*
G75*
G02*
X199180000Y-114710000I-310000J0D01*
G01*
%TO.C,C11*%
X192810000Y-104800000D02*
X192810000Y-104000000D01*
X193920000Y-103690000D02*
X193120000Y-103690000D01*
X193920000Y-105110000D02*
X193120000Y-105110000D01*
X194480000Y-103690000D02*
X195280000Y-103690000D01*
X194480000Y-105110000D02*
X195280000Y-105110000D01*
X195590000Y-104000000D02*
X195590000Y-104800000D01*
X192810000Y-104000000D02*
G75*
G02*
X193120000Y-103690000I310000J0D01*
G01*
X193120000Y-105110000D02*
G75*
G02*
X192810000Y-104800000I0J310000D01*
G01*
X195280000Y-103690000D02*
G75*
G02*
X195590000Y-104000000I0J-310000D01*
G01*
X195590000Y-104800000D02*
G75*
G02*
X195280000Y-105110000I-310000J0D01*
G01*
D10*
%TO.C,C9*%
X200110000Y-111370000D02*
X200110000Y-109890000D01*
X200110000Y-113230000D02*
X200110000Y-114710000D01*
X200260000Y-109740000D02*
X202140000Y-109740000D01*
X200260000Y-114860000D02*
X202140000Y-114860000D01*
X202290000Y-109890000D02*
X202290000Y-111370000D01*
X202290000Y-114710000D02*
X202290000Y-113230000D01*
X200110000Y-109890000D02*
G75*
G02*
X200260000Y-109740000I150000J0D01*
G01*
X200260000Y-114860000D02*
G75*
G02*
X200110000Y-114710000I0J150000D01*
G01*
X202140000Y-109740000D02*
G75*
G02*
X202290000Y-109890000I0J-150000D01*
G01*
X202290000Y-114710000D02*
G75*
G02*
X202140000Y-114860000I-150000J0D01*
G01*
%TO.C,R9*%
X161110000Y-110640000D02*
X161110000Y-111960000D01*
X161110000Y-111960000D02*
X162070000Y-111960000D01*
X162070000Y-110640000D02*
X161110000Y-110640000D01*
X162930000Y-110640000D02*
X163890000Y-110640000D01*
X163890000Y-110640000D02*
X163890000Y-111960000D01*
X163890000Y-111960000D02*
X162930000Y-111960000D01*
D11*
%TO.C,U3*%
X157300000Y-94630000D02*
X157300000Y-103280000D01*
X157300000Y-103280000D02*
X192850000Y-103280000D01*
X157640000Y-94630000D02*
X157300000Y-94630000D01*
X160180000Y-94630000D02*
X159600000Y-94630000D01*
X165900000Y-87080000D02*
X165900000Y-91060000D01*
X165900000Y-91060000D02*
X165900000Y-94640000D01*
X179410000Y-87080000D02*
X165900000Y-87080000D01*
X179410000Y-94640000D02*
X179410000Y-87080000D01*
X182980000Y-94630000D02*
X162140000Y-94630000D01*
X185520000Y-94630000D02*
X184940000Y-94630000D01*
X188060000Y-94630000D02*
X187480000Y-94630000D01*
X190600000Y-94630000D02*
X190020000Y-94630000D01*
X192900000Y-94630000D02*
X192560000Y-94630000D01*
X192900000Y-99080000D02*
X157300000Y-99080000D01*
X192900000Y-100680000D02*
X157300000Y-100680000D01*
X192900000Y-103280000D02*
X192900000Y-94630000D01*
D10*
%TO.C,R5*%
X161110000Y-112240000D02*
X161110000Y-113560000D01*
X161110000Y-113560000D02*
X162070000Y-113560000D01*
X162070000Y-112240000D02*
X161110000Y-112240000D01*
X162930000Y-112240000D02*
X163890000Y-112240000D01*
X163890000Y-112240000D02*
X163890000Y-113560000D01*
X163890000Y-113560000D02*
X162930000Y-113560000D01*
%TO.C,D1*%
X192720000Y-116670000D02*
X200680000Y-116670000D01*
X192720000Y-122730000D02*
X200680000Y-122730000D01*
X194630000Y-116670000D02*
X194630000Y-122730000D01*
D11*
X196190000Y-119700000D02*
X196190000Y-120210000D01*
X196190000Y-119700000D02*
X197210000Y-120210000D01*
X196190000Y-120210000D02*
X196190000Y-119190000D01*
X197210000Y-119190000D02*
X196190000Y-119700000D01*
X197210000Y-120210000D02*
X197210000Y-119190000D01*
X197720000Y-119700000D02*
X195680000Y-119700000D01*
D10*
X200680000Y-116670000D02*
X200680000Y-117880000D01*
X200680000Y-122730000D02*
X200680000Y-121520000D01*
D11*
%TO.C,C21*%
X137410000Y-101800000D02*
X137410000Y-101000000D01*
X138520000Y-100690000D02*
X137720000Y-100690000D01*
X138520000Y-102110000D02*
X137720000Y-102110000D01*
X139080000Y-100690000D02*
X139880000Y-100690000D01*
X139080000Y-102110000D02*
X139880000Y-102110000D01*
X140190000Y-101000000D02*
X140190000Y-101800000D01*
X137410000Y-101000000D02*
G75*
G02*
X137720000Y-100690000I310000J0D01*
G01*
X137720000Y-102110000D02*
G75*
G02*
X137410000Y-101800000I0J310000D01*
G01*
X139880000Y-100690000D02*
G75*
G02*
X140190000Y-101000000I0J-310000D01*
G01*
X140190000Y-101800000D02*
G75*
G02*
X139880000Y-102110000I-310000J0D01*
G01*
%TO.C,LED2*%
X146610000Y-105800000D02*
X146610000Y-105000000D01*
X147720000Y-104690000D02*
X146920000Y-104690000D01*
X147720000Y-106110000D02*
X146920000Y-106110000D01*
X148280000Y-104690000D02*
X149080000Y-104690000D01*
X148280000Y-106110000D02*
X149080000Y-106110000D01*
X149390000Y-105000000D02*
X149390000Y-105800000D01*
X146610000Y-105000000D02*
G75*
G02*
X146920000Y-104690000I310000J0D01*
G01*
X146920000Y-106110000D02*
G75*
G02*
X146610000Y-105800000I0J310000D01*
G01*
X149080000Y-104690000D02*
G75*
G02*
X149390000Y-105000000I0J-310000D01*
G01*
X149390000Y-105800000D02*
G75*
G02*
X149080000Y-106110000I-310000J0D01*
G01*
D10*
%TO.C,R12*%
X176610000Y-113340000D02*
X177570000Y-113340000D01*
X176610000Y-114660000D02*
X176610000Y-113340000D01*
X177570000Y-114660000D02*
X176610000Y-114660000D01*
X178430000Y-114660000D02*
X179390000Y-114660000D01*
X179390000Y-113340000D02*
X178430000Y-113340000D01*
X179390000Y-114660000D02*
X179390000Y-113340000D01*
D11*
%TO.C,C5*%
X168890000Y-105920000D02*
X168890000Y-105120000D01*
X168890000Y-106480000D02*
X168890000Y-107280000D01*
X169200000Y-104810000D02*
X170000000Y-104810000D01*
X170000000Y-107590000D02*
X169200000Y-107590000D01*
X170310000Y-105920000D02*
X170310000Y-105120000D01*
X170310000Y-106480000D02*
X170310000Y-107280000D01*
X168890000Y-105120000D02*
G75*
G02*
X169200000Y-104810000I310000J0D01*
G01*
X169200000Y-107590000D02*
G75*
G02*
X168890000Y-107280000I0J310000D01*
G01*
X170000000Y-104810000D02*
G75*
G02*
X170310000Y-105120000I0J-310000D01*
G01*
X170310000Y-107280000D02*
G75*
G02*
X170000000Y-107590000I-310000J0D01*
G01*
D10*
%TO.C,R3*%
X179910000Y-116540000D02*
X180870000Y-116540000D01*
X179910000Y-117860000D02*
X179910000Y-116540000D01*
X180870000Y-117860000D02*
X179910000Y-117860000D01*
X181730000Y-117860000D02*
X182690000Y-117860000D01*
X182690000Y-116540000D02*
X181730000Y-116540000D01*
X182690000Y-117860000D02*
X182690000Y-116540000D01*
%TO.C,R15*%
X118110000Y-113140000D02*
X119070000Y-113140000D01*
X118110000Y-114460000D02*
X118110000Y-113140000D01*
X119070000Y-114460000D02*
X118110000Y-114460000D01*
X119930000Y-114460000D02*
X120890000Y-114460000D01*
X120890000Y-113140000D02*
X119930000Y-113140000D01*
X120890000Y-114460000D02*
X120890000Y-113140000D01*
D11*
%TO.C,C8*%
X179910000Y-112800000D02*
X179910000Y-112000000D01*
X181020000Y-111690000D02*
X180220000Y-111690000D01*
X181020000Y-113110000D02*
X180220000Y-113110000D01*
X181580000Y-111690000D02*
X182380000Y-111690000D01*
X181580000Y-113110000D02*
X182380000Y-113110000D01*
X182690000Y-112000000D02*
X182690000Y-112800000D01*
X179910000Y-112000000D02*
G75*
G02*
X180220000Y-111690000I310000J0D01*
G01*
X180220000Y-113110000D02*
G75*
G02*
X179910000Y-112800000I0J310000D01*
G01*
X182380000Y-111690000D02*
G75*
G02*
X182690000Y-112000000I0J-310000D01*
G01*
X182690000Y-112800000D02*
G75*
G02*
X182380000Y-113110000I-310000J0D01*
G01*
D10*
%TO.C,D2*%
X147420000Y-97970000D02*
X155380000Y-97970000D01*
X147420000Y-104030000D02*
X155380000Y-104030000D01*
X149330000Y-97970000D02*
X149330000Y-104030000D01*
D11*
X150890000Y-101000000D02*
X150890000Y-101510000D01*
X150890000Y-101000000D02*
X151910000Y-101510000D01*
X150890000Y-101510000D02*
X150890000Y-100490000D01*
X151910000Y-100490000D02*
X150890000Y-101000000D01*
X151910000Y-101510000D02*
X151910000Y-100490000D01*
X152420000Y-101000000D02*
X150380000Y-101000000D01*
D10*
X155380000Y-97970000D02*
X155380000Y-99180000D01*
X155380000Y-104030000D02*
X155380000Y-102820000D01*
%TO.C,R7*%
X179910000Y-113340000D02*
X179910000Y-114660000D01*
X179910000Y-114660000D02*
X180870000Y-114660000D01*
X180870000Y-113340000D02*
X179910000Y-113340000D01*
X181730000Y-113340000D02*
X182690000Y-113340000D01*
X182690000Y-113340000D02*
X182690000Y-114660000D01*
X182690000Y-114660000D02*
X181730000Y-114660000D01*
%TO.C,R11*%
X176610000Y-118140000D02*
X177570000Y-118140000D01*
X176610000Y-119460000D02*
X176610000Y-118140000D01*
X177570000Y-119460000D02*
X176610000Y-119460000D01*
X178430000Y-119460000D02*
X179390000Y-119460000D01*
X179390000Y-118140000D02*
X178430000Y-118140000D01*
X179390000Y-119460000D02*
X179390000Y-118140000D01*
D11*
%TO.C,U6*%
X136000000Y-95400000D02*
X136000000Y-100200000D01*
X136000000Y-95400000D02*
X142000000Y-95400000D01*
X136000000Y-100200000D02*
X142000000Y-100200000D01*
X136500000Y-95850000D02*
X136500000Y-96550000D01*
X136500000Y-96550000D02*
X136000000Y-96550000D01*
X136500000Y-98050000D02*
X136000000Y-98050000D01*
X136500000Y-99650000D02*
X136500000Y-98050000D01*
X137490000Y-95400000D02*
X137490000Y-95850000D01*
X137490000Y-95850000D02*
X136500000Y-95850000D01*
X140500000Y-95850000D02*
X140500000Y-95400000D01*
X141500000Y-95850000D02*
X140500000Y-95850000D01*
X141500000Y-96540000D02*
X141500000Y-95850000D01*
X141500000Y-98050000D02*
X141500000Y-99650000D01*
X141500000Y-99650000D02*
X136500000Y-99650000D01*
X142000000Y-95400000D02*
X142000000Y-100200000D01*
X142000000Y-96540000D02*
X141500000Y-96540000D01*
X142000000Y-98050000D02*
X141500000Y-98050000D01*
D10*
%TO.C,R6*%
X179910000Y-118140000D02*
X180870000Y-118140000D01*
X179910000Y-119460000D02*
X179910000Y-118140000D01*
X180870000Y-119460000D02*
X179910000Y-119460000D01*
X181730000Y-119460000D02*
X182690000Y-119460000D01*
X182690000Y-118140000D02*
X181730000Y-118140000D01*
X182690000Y-119460000D02*
X182690000Y-118140000D01*
%TO.C,R1*%
X157610000Y-110840000D02*
X158930000Y-110840000D01*
X157610000Y-111800000D02*
X157610000Y-110840000D01*
X157610000Y-112660000D02*
X157610000Y-113620000D01*
X157610000Y-113620000D02*
X158930000Y-113620000D01*
X158930000Y-110840000D02*
X158930000Y-111800000D01*
X158930000Y-113620000D02*
X158930000Y-112660000D01*
%TO.C,X2*%
X152290000Y-110780000D02*
X156600000Y-110750000D01*
X152290000Y-112430000D02*
X152290000Y-110780000D01*
X152290000Y-114080000D02*
X152290000Y-112430000D01*
X156600000Y-110750000D02*
X156860000Y-110750000D01*
X156860000Y-110750000D02*
X156860000Y-114080000D01*
X156860000Y-114080000D02*
X152290000Y-114080000D01*
X157110000Y-110520000D02*
X156230000Y-110520000D01*
X157110000Y-110650000D02*
X157110000Y-110520000D01*
X157110000Y-111410000D02*
X157110000Y-110650000D01*
%TO.C,R16*%
X118110000Y-111640000D02*
X119070000Y-111640000D01*
X118110000Y-112960000D02*
X118110000Y-111640000D01*
X119070000Y-112960000D02*
X118110000Y-112960000D01*
X119930000Y-112960000D02*
X120890000Y-112960000D01*
X120890000Y-111640000D02*
X119930000Y-111640000D01*
X120890000Y-112960000D02*
X120890000Y-111640000D01*
D13*
%TO.C,Q1*%
X129390000Y-96640000D02*
X131210000Y-96640000D01*
X129390000Y-96690000D02*
X129390000Y-96640000D01*
X129390000Y-99760000D02*
X129390000Y-99710000D01*
X131210000Y-96640000D02*
X131210000Y-96690000D01*
X131210000Y-99710000D02*
X131210000Y-99760000D01*
X131210000Y-99760000D02*
X129390000Y-99760000D01*
X131990000Y-100040000D02*
X131510000Y-100040000D01*
X131750000Y-99710000D01*
X131990000Y-100040000D01*
G36*
X131990000Y-100040000D02*
G01*
X131510000Y-100040000D01*
X131750000Y-99710000D01*
X131990000Y-100040000D01*
G37*
D10*
%TO.C,R2*%
X176610000Y-111740000D02*
X176610000Y-113060000D01*
X176610000Y-113060000D02*
X177570000Y-113060000D01*
X177570000Y-111740000D02*
X176610000Y-111740000D01*
X178430000Y-111740000D02*
X179390000Y-111740000D01*
X179390000Y-111740000D02*
X179390000Y-113060000D01*
X179390000Y-113060000D02*
X178430000Y-113060000D01*
D11*
%TO.C,LED1*%
X146610000Y-107500000D02*
X146610000Y-106700000D01*
X147720000Y-106390000D02*
X146920000Y-106390000D01*
X147720000Y-107810000D02*
X146920000Y-107810000D01*
X148280000Y-106390000D02*
X149080000Y-106390000D01*
X148280000Y-107810000D02*
X149080000Y-107810000D01*
X149390000Y-106700000D02*
X149390000Y-107500000D01*
X146610000Y-106700000D02*
G75*
G02*
X146920000Y-106390000I310000J0D01*
G01*
X146920000Y-107810000D02*
G75*
G02*
X146610000Y-107500000I0J310000D01*
G01*
X149080000Y-106390000D02*
G75*
G02*
X149390000Y-106700000I0J-310000D01*
G01*
X149390000Y-107500000D02*
G75*
G02*
X149080000Y-107810000I-310000J0D01*
G01*
D10*
%TO.C,R4*%
X196810000Y-115040000D02*
X196810000Y-116360000D01*
X196810000Y-116360000D02*
X197770000Y-116360000D01*
X197770000Y-115040000D02*
X196810000Y-115040000D01*
X198630000Y-115040000D02*
X199590000Y-115040000D01*
X199590000Y-115040000D02*
X199590000Y-116360000D01*
X199590000Y-116360000D02*
X198630000Y-116360000D01*
%TO.C,D3*%
X147520000Y-91170000D02*
X155480000Y-91170000D01*
X147520000Y-97230000D02*
X155480000Y-97230000D01*
X149430000Y-91170000D02*
X149430000Y-97230000D01*
D11*
X150990000Y-94200000D02*
X150990000Y-94710000D01*
X150990000Y-94200000D02*
X152010000Y-94710000D01*
X150990000Y-94710000D02*
X150990000Y-93690000D01*
X152010000Y-93690000D02*
X150990000Y-94200000D01*
X152010000Y-94710000D02*
X152010000Y-93690000D01*
X152520000Y-94200000D02*
X150480000Y-94200000D01*
D10*
X155480000Y-91170000D02*
X155480000Y-92380000D01*
X155480000Y-97230000D02*
X155480000Y-96020000D01*
%TD*%
M02*
