%TF.GenerationSoftware,KiCad,Pcbnew,9.0.6*%
%TF.CreationDate,2026-01-03T23:52:13+01:00*%
%TF.ProjectId,Artnet-Node,4172746e-6574-42d4-9e6f-64652e6b6963,rev?*%
%TF.SameCoordinates,Original*%
%TF.FileFunction,Soldermask,Bot*%
%TF.FilePolarity,Negative*%
%FSLAX46Y46*%
G04 Gerber Fmt 4.6, Leading zero omitted, Abs format (unit mm)*
G04 Created by KiCad (PCBNEW 9.0.6) date 2026-01-03 23:52:13*
%MOMM*%
%LPD*%
G01*
G04 APERTURE LIST*
G04 Aperture macros list*
%AMRoundRect*
0 Rectangle with rounded corners*
0 $1 Rounding radius*
0 $2 $3 $4 $5 $6 $7 $8 $9 X,Y pos of 4 corners*
0 Add a 4 corners polygon primitive as box body*
4,1,4,$2,$3,$4,$5,$6,$7,$8,$9,$2,$3,0*
0 Add four circle primitives for the rounded corners*
1,1,$1+$1,$2,$3*
1,1,$1+$1,$4,$5*
1,1,$1+$1,$6,$7*
1,1,$1+$1,$8,$9*
0 Add four rect primitives between the rounded corners*
20,1,$1+$1,$2,$3,$4,$5,0*
20,1,$1+$1,$4,$5,$6,$7,0*
20,1,$1+$1,$6,$7,$8,$9,0*
20,1,$1+$1,$8,$9,$2,$3,0*%
G04 Aperture macros list end*
%ADD10C,2.000000*%
%ADD11O,1.600000X3.000000*%
%ADD12C,1.600000*%
%ADD13C,3.200000*%
%ADD14C,0.900000*%
%ADD15C,2.400000*%
%ADD16C,1.530000*%
%ADD17C,1.410000*%
%ADD18C,3.250000*%
%ADD19O,1.800000X1.200000*%
%ADD20O,2.000000X1.100000*%
%ADD21C,0.700000*%
%ADD22C,1.700000*%
%ADD23C,1.800000*%
%ADD24C,1.200000*%
%ADD25RoundRect,0.219000X-0.294000X0.219000X-0.294000X-0.219000X0.294000X-0.219000X0.294000X0.219000X0*%
%ADD26R,1.070000X0.530000*%
%ADD27R,0.900000X0.800000*%
%ADD28R,0.800000X1.000000*%
%ADD29RoundRect,0.244000X0.244000X0.269000X-0.244000X0.269000X-0.244000X-0.269000X0.244000X-0.269000X0*%
%ADD30R,2.000000X3.300000*%
%ADD31R,0.810000X0.860000*%
%ADD32O,0.590000X2.050000*%
%ADD33RoundRect,0.219000X0.294000X-0.219000X0.294000X0.219000X-0.294000X0.219000X-0.294000X-0.219000X0*%
%ADD34O,1.250000X0.360000*%
G04 APERTURE END LIST*
D10*
%TO.C,J5*%
X120100000Y-138950000D03*
X111500000Y-128750000D03*
D11*
X115600000Y-133350000D03*
X107400000Y-132550000D03*
D12*
X115350000Y-142200000D03*
X107650000Y-137100000D03*
%TD*%
D10*
%TO.C,J4*%
X150100000Y-138950000D03*
X141500000Y-128750000D03*
D11*
X145600000Y-133350000D03*
X137400000Y-132550000D03*
D12*
X145350000Y-142200000D03*
X137650000Y-137100000D03*
%TD*%
D10*
%TO.C,J3*%
X180100000Y-138950000D03*
X171500000Y-128750000D03*
D11*
X175600000Y-133350000D03*
X167400000Y-132550000D03*
D12*
X175350000Y-142200000D03*
X167650000Y-137100000D03*
%TD*%
D10*
%TO.C,J1*%
X210100000Y-138950000D03*
X201500000Y-128750000D03*
D11*
X205600000Y-133350000D03*
X197400000Y-132550000D03*
D12*
X205350000Y-142200000D03*
X197650000Y-137100000D03*
%TD*%
D13*
%TO.C,H1*%
X182400000Y-89400000D03*
%TD*%
%TO.C,H2*%
X186500000Y-136000000D03*
%TD*%
%TO.C,H3*%
X126300000Y-136000000D03*
%TD*%
%TO.C,H4*%
X101700000Y-90400000D03*
%TD*%
D14*
%TO.C,SW1*%
X153180000Y-87680000D03*
X157430000Y-87680000D03*
%TD*%
%TO.C,SW2*%
X135880000Y-87680000D03*
X140130000Y-87680000D03*
%TD*%
%TO.C,SW3*%
X144680000Y-87680000D03*
X148930000Y-87680000D03*
%TD*%
D15*
%TO.C,U2*%
X203620000Y-93160000D03*
X203620000Y-108640000D03*
D16*
X210720000Y-94270000D03*
X210720000Y-96810000D03*
X210720000Y-104990000D03*
X210720000Y-107530000D03*
D17*
X200320000Y-95180000D03*
X197780000Y-96450000D03*
X197780000Y-98990000D03*
X200320000Y-100260000D03*
X197780000Y-101530000D03*
X200320000Y-102800000D03*
X197780000Y-104070000D03*
X200320000Y-105340000D03*
X197780000Y-106610000D03*
D18*
X206670000Y-95180000D03*
X206670000Y-106610000D03*
%TD*%
D19*
%TO.C,USB1*%
X215197500Y-114380000D03*
D20*
X210987500Y-114380000D03*
D19*
X215197500Y-123020000D03*
D20*
X210987500Y-123020000D03*
D21*
X211517500Y-115810000D03*
X211517500Y-121590000D03*
%TD*%
D22*
%TO.C,U3*%
X191580000Y-95100000D03*
X189040000Y-95100000D03*
X186500000Y-95100000D03*
X183960000Y-95100000D03*
X161160000Y-95100000D03*
X158620000Y-95100000D03*
%TD*%
D23*
%TO.C,U13*%
X110090000Y-89200000D03*
X112630000Y-89200000D03*
X115170000Y-89200000D03*
X117710000Y-89200000D03*
%TD*%
D24*
%TO.C,U6*%
X140000000Y-97150000D03*
X138000000Y-97150000D03*
%TD*%
D25*
%TO.C,R27*%
X116400000Y-121180000D03*
X116400000Y-122820000D03*
%TD*%
%TO.C,R35*%
X206200000Y-120980000D03*
X206200000Y-122620000D03*
%TD*%
D26*
%TO.C,U5*%
X129150000Y-99150000D03*
X129150000Y-98200000D03*
X129150000Y-97250000D03*
X131450000Y-97250000D03*
X131450000Y-98200000D03*
X131450000Y-99150000D03*
%TD*%
D25*
%TO.C,R33*%
X146700000Y-124280000D03*
X146700000Y-125920000D03*
%TD*%
%TO.C,R36*%
X200100000Y-124280000D03*
X200100000Y-125920000D03*
%TD*%
D27*
%TO.C,C26*%
X206300000Y-116600000D03*
X206300000Y-115200000D03*
%TD*%
D25*
%TO.C,R39*%
X176600000Y-121180000D03*
X176600000Y-122820000D03*
%TD*%
%TO.C,R25*%
X116400000Y-124380000D03*
X116400000Y-126020000D03*
%TD*%
D28*
%TO.C,D7*%
X174150000Y-124350000D03*
X172250000Y-124350000D03*
X173200000Y-122050000D03*
%TD*%
D25*
%TO.C,R32*%
X140900000Y-124280000D03*
X140900000Y-125920000D03*
%TD*%
D27*
%TO.C,C25*%
X176800000Y-117300000D03*
X176800000Y-115900000D03*
%TD*%
D29*
%TO.C,C20*%
X132980000Y-100900000D03*
X131420000Y-100900000D03*
%TD*%
D27*
%TO.C,C27*%
X117300000Y-116700000D03*
X117300000Y-115300000D03*
%TD*%
D30*
%TO.C,R26*%
X140070000Y-92900000D03*
X133930000Y-92900000D03*
%TD*%
D31*
%TO.C,R23*%
X133050000Y-98200000D03*
X134550000Y-98200000D03*
%TD*%
D28*
%TO.C,D5*%
X144750000Y-124250000D03*
X142850000Y-124250000D03*
X143800000Y-121950000D03*
%TD*%
D32*
%TO.C,U8*%
X111262500Y-113530000D03*
X112542500Y-113530000D03*
X113802500Y-113530000D03*
X115072500Y-113530000D03*
X115072500Y-118670000D03*
X113802500Y-118670000D03*
X112542500Y-118670000D03*
X111262500Y-118670000D03*
%TD*%
D33*
%TO.C,R30*%
X138700000Y-125920000D03*
X138700000Y-124280000D03*
%TD*%
D28*
%TO.C,D4*%
X114250000Y-124350000D03*
X112350000Y-124350000D03*
X113300000Y-122050000D03*
%TD*%
D31*
%TO.C,R22*%
X125450000Y-98200000D03*
X126950000Y-98200000D03*
%TD*%
D32*
%TO.C,U12*%
X170990000Y-114030000D03*
X172270000Y-114030000D03*
X173530000Y-114030000D03*
X174800000Y-114030000D03*
X174800000Y-119170000D03*
X173530000Y-119170000D03*
X172270000Y-119170000D03*
X170990000Y-119170000D03*
%TD*%
D25*
%TO.C,R37*%
X206200000Y-124280000D03*
X206200000Y-125920000D03*
%TD*%
D34*
%TO.C,U9*%
X130330000Y-92720000D03*
X130330000Y-93370000D03*
X130330000Y-94020000D03*
X130330000Y-94680000D03*
X127870000Y-94680000D03*
X127870000Y-94020000D03*
X127870000Y-93370000D03*
X127870000Y-92720000D03*
%TD*%
D33*
%TO.C,R34*%
X198500000Y-125920000D03*
X198500000Y-124280000D03*
%TD*%
D25*
%TO.C,R29*%
X110200000Y-124380000D03*
X110200000Y-126020000D03*
%TD*%
D28*
%TO.C,D6*%
X204150000Y-124350000D03*
X202250000Y-124350000D03*
X203200000Y-122050000D03*
%TD*%
D32*
%TO.C,U11*%
X200390000Y-113330000D03*
X201670000Y-113330000D03*
X202930000Y-113330000D03*
X204200000Y-113330000D03*
X204200000Y-118470000D03*
X202930000Y-118470000D03*
X201670000Y-118470000D03*
X200390000Y-118470000D03*
%TD*%
D25*
%TO.C,R31*%
X146700000Y-120880000D03*
X146700000Y-122520000D03*
%TD*%
%TO.C,R41*%
X176600000Y-124180000D03*
X176600000Y-125820000D03*
%TD*%
D27*
%TO.C,C24*%
X147500000Y-116900000D03*
X147500000Y-115500000D03*
%TD*%
D33*
%TO.C,R28*%
X108400000Y-126020000D03*
X108400000Y-124380000D03*
%TD*%
%TO.C,R38*%
X167900000Y-125820000D03*
X167900000Y-124180000D03*
%TD*%
D32*
%TO.C,U10*%
X141390000Y-113630000D03*
X142670000Y-113630000D03*
X143930000Y-113630000D03*
X145200000Y-113630000D03*
X145200000Y-118770000D03*
X143930000Y-118770000D03*
X142670000Y-118770000D03*
X141390000Y-118770000D03*
%TD*%
D25*
%TO.C,R40*%
X169800000Y-124180000D03*
X169800000Y-125820000D03*
%TD*%
M02*
